<svg xmlns="http://www.w3.org/2000/svg" viewBox="0 0 2000 2000"><defs><style>.cls-1,.cls-2{fill:#03017d;}.cls-2,.cls-3{stroke:#fff;stroke-width:20px;}.cls-2,.cls-3,.cls-6,.cls-7,.cls-8{stroke-miterlimit:10;}.cls-3,.cls-4,.cls-5,.cls-6,.cls-7,.cls-8{fill:#fff;}.cls-4{font-size:229.09px;}.cls-4,.cls-5,.cls-9{font-family:Arpona-SemiBold, Arpona;font-weight:600;}.cls-5{font-size:229px;}.cls-6{font-size:974.66px;letter-spacing:-0.03em;}.cls-6,.cls-7,.cls-8{stroke:#03017d;}.cls-6,.cls-7{stroke-width:39px;font-family:OctinSportsRg-Regular, Octin Sports;}.cls-7{font-size:1014.03px;letter-spacing:-0.06em;}.cls-8{stroke-width:25px;opacity:0.83;}.cls-9{font-size:71.51px;letter-spacing:-0.03em;}</style></defs><g id="Layer_2" data-name="Layer 2"><circle class="cls-1" cx="999.33" cy="1010.07" r="972.04"/><ellipse class="cls-2" cx="999.33" cy="1010.07" rx="930" ry="925"/><ellipse class="cls-3" cx="1000" cy="1010.07" rx="655.95" ry="628.23"/></g><g id="Layer_3" data-name="Layer 3"><text class="cls-4" transform="matrix(0.27, -0.96, 0.96, 0.27, 296.74, 888.63)">S</text><text class="cls-4" transform="matrix(0.44, -0.9, 0.9, 0.44, 328.07, 766.93)">A</text><text class="cls-4" transform="translate(388.57 638.54) rotate(-51.81)">N</text><text class="cls-4" transform="translate(489.02 516.35) rotate(-44.18)"> </text><text class="cls-4" transform="matrix(0.78, -0.63, 0.63, 0.78, 510.9, 492.16)">J</text><text class="cls-4" transform="matrix(0.88, -0.48, 0.48, 0.88, 584.83, 427.55)">O</text><text class="cls-4" transform="translate(723.36 352.03) rotate(-17.09)">S</text><text class="cls-4" transform="translate(846.37 312.82) rotate(-6.63)">E</text><text class="cls-4" transform="translate(977.37 299.81)"> </text><text class="cls-4" transform="translate(1008.96 295.5) rotate(7.14)">R</text><text class="cls-4" transform="translate(1152 311.99) rotate(18.51)">A</text><text class="cls-4" transform="translate(1287.21 356.07) rotate(29.75)">P</text><text class="cls-4" transform="translate(1405.83 422.75) rotate(40.45)">T</text><text class="cls-4" transform="matrix(0.62, 0.78, -0.78, 0.62, 1500.37, 498.81)">O</text><text class="cls-4" transform="translate(1599.48 621.32) rotate(63.37)">R</text><text class="cls-4" transform="matrix(0.27, 0.96, -0.96, 0.27, 1664.68, 749.85)">S</text><text class="cls-4" transform="matrix(0.16, 0.99, -0.99, 0.16, 1697.99, 876.75)"> </text></g><g id="Layer_4" data-name="Layer 4"><text class="cls-5" transform="translate(242.25 1435.18) rotate(55.58)">B</text><text class="cls-5" transform="matrix(0.71, 0.7, -0.7, 0.71, 336.2, 1570.92)">A</text><text class="cls-5" transform="translate(454.16 1685.59) rotate(34.16)">S</text><text class="cls-5" transform="translate(581.31 1770.78) rotate(24.05)">E</text><text class="cls-5" transform="translate(722.4 1833.4) rotate(13.53)">B</text><text class="cls-5" transform="translate(883.17 1871.26) rotate(2.56)">A</text><text class="cls-5" transform="translate(1049.66 1876.59) rotate(-7.6)">L</text><text class="cls-5" transform="translate(1185.86 1857.74) rotate(-16.67)">L</text><text class="cls-5" transform="matrix(0.92, -0.38, 0.38, 0.92, 1311.37, 1817.74)"> </text><text class="cls-5" transform="translate(1356.06 1802.15) rotate(-29.01)">C</text><text class="cls-5" transform="translate(1491.73 1725.18) rotate(-38.73)">L</text><text class="cls-5" transform="matrix(0.66, -0.75, 0.75, 0.66, 1596.34, 1642.99)">U</text><text class="cls-5" transform="matrix(0.49, -0.87, 0.87, 0.49, 1713.08, 1506.94)">B</text></g><g id="Layer_5" data-name="Layer 5"><text class="cls-6" transform="translate(514.98 1210.29) scale(1.25 1)">S</text><text class="cls-7" transform="translate(880.11 1534.89) scale(1.12 1)">J</text><path class="cls-8" d="M541.25,1405.87l52,16.71a199.48,199.48,0,0,0,8.79,63.89"/><path class="cls-8" d="M596.25,1365.57l52,16.71a199.48,199.48,0,0,0,8.79,63.89"/><path class="cls-8" d="M673.42,1313.12l46.5,28.61a199.39,199.39,0,0,0-6.68,64.14"/><path class="cls-8" d="M747.37,1283l47.31,27.23a199.34,199.34,0,0,0-4.79,64.31"/><path class="cls-8" d="M820.82,1256.13l45.81,29.7a199.18,199.18,0,0,0-8.19,64"/><path class="cls-8" d="M1091.3,1232.59l29.94,45.64a199.76,199.76,0,0,0-33.29,55.23"/><path class="cls-8" d="M1164.77,1243.26l18.89,51.22a199.28,199.28,0,0,0-44.87,46.31"/><path class="cls-8" d="M1233.05,1265.23l15.76,52.27a199.15,199.15,0,0,0-47.6,43.51"/><path class="cls-8" d="M1455.71,1359,1468.5,1412a199.37,199.37,0,0,0-50,40.77"/><path class="cls-8" d="M1485.74,621.86l-53.17-12.35a199.76,199.76,0,0,0-14-63"/><path class="cls-8" d="M1423.58,662.16l-52-16.71a199.52,199.52,0,0,0-8.79-63.89"/><path class="cls-8" d="M1356.83,702.56l-49.58-22.83a199.6,199.6,0,0,0-1.06-64.48"/><path class="cls-8" d="M1290.73,727.07l-49.58-22.82a199.38,199.38,0,0,0-1.06-64.49"/><path class="cls-8" d="M1201.21,746.05,1155,717a199.53,199.53,0,0,0,7.25-64.08"/><path class="cls-8" d="M829.69,749.48l-24.93-48.57a199.29,199.29,0,0,0,39-51.39"/><path class="cls-8" d="M749.39,737l-18.25-51.45a199.14,199.14,0,0,0,45.45-45.75"/><path class="cls-8" d="M558.27,591.14l9-45.54A147.84,147.84,0,0,0,617,533.29"/><path class="cls-8" d="M915.07,758.85l-24.93-48.56a199.33,199.33,0,0,0,39-51.39"/></g><g id="Layer_6" data-name="Layer 6"><text class="cls-9" transform="translate(1637.52 1881.92)">TM</text></g></svg>