<svg id="Layer_2" data-name="Layer 2" xmlns="http://www.w3.org/2000/svg" viewBox="0 0 792 612"><defs><style>.cls-1,.cls-2,.cls-3,.cls-4{fill:#fff;stroke-miterlimit:10;}.cls-1{stroke:#010379;stroke-width:45px;}.cls-2{font-size:974.66px;letter-spacing:-0.03em;}.cls-2,.cls-3,.cls-4{stroke:#03017d;}.cls-2,.cls-3{stroke-width:39px;font-family:OctinSportsRg-Regular, Octin Sports;}.cls-3{font-size:1014.03px;letter-spacing:-0.06em;}.cls-4{stroke-width:25px;opacity:0.83;}</style></defs><ellipse class="cls-1" cx="406.95" cy="211.94" rx="655.95" ry="628.23"/><text class="cls-2" transform="translate(-78.06 412.16) scale(1.25 1)">S</text><text class="cls-3" transform="translate(287.06 736.77) scale(1.12 1)">J</text><path class="cls-4" d="M-51.79,607.74l52,16.71A199.48,199.48,0,0,0,9,688.34"/><path class="cls-4" d="M3.21,567.44l52,16.71A199.48,199.48,0,0,0,64,648"/><path class="cls-4" d="M80.37,515l46.5,28.61a199.42,199.42,0,0,0-6.68,64.14"/><path class="cls-4" d="M154.32,484.9l47.31,27.23a199.63,199.63,0,0,0-4.79,64.31"/><path class="cls-4" d="M227.77,458l45.81,29.69a199.46,199.46,0,0,0-8.19,64"/><path class="cls-4" d="M498.26,434.46,528.2,480.1a199.18,199.18,0,0,0-33.29,55.24"/><path class="cls-4" d="M571.73,445.13l18.89,51.22a199.52,199.52,0,0,0-44.88,46.31"/><path class="cls-4" d="M640,467.1l15.75,52.27a199.34,199.34,0,0,0-47.6,43.51"/></svg>