<svg xmlns="http://www.w3.org/2000/svg" viewBox="0 0 1200 1200"><defs><style>.cls-1{isolation:isolate;}.cls-2{fill:#cacaca;}.cls-3{mix-blend-mode:multiply;}.white{fill:#fff;}.cls-4{fill:#fefefe;}.cls-5{fill:#fdfdfd;}.cls-6{fill:#fcfcfc;}.cls-7{fill:#fbfbfb;}.cls-8{fill:#fafafa;}.cls-9{fill:#f9f9f9;}.cls-10{fill:#f8f8f8;}.cls-11{fill:#f7f7f7;}.cls-12{fill:#f6f6f6;}.cls-13{fill:#f5f5f5;}.cls-14{fill:#f4f4f4;}.cls-15{fill:#f3f3f3;}.cls-16{fill:#f2f2f2;}.cls-17{fill:#f1f1f1;}.cls-18{fill:#f0f0f0;}.cls-19{fill:#efefef;}.cls-20{fill:#eee;}.cls-21{fill:#ededed;}.cls-22{fill:#ececec;}.cls-23{fill:#ebebeb;}.cls-24{fill:#eaeaea;}.cls-25{fill:#e9e9e9;}.cls-26{fill:#e8e8e8;}.cls-27{fill:#e7e7e7;}.cls-28{fill:#e6e6e6;}.cls-29{fill:#e5e5e5;}.cls-30{fill:#e4e4e4;}.cls-31{fill:#e3e3e3;}.cls-32{fill:#e2e2e2;}.cls-33{fill:#e1e1e1;}.cls-34{fill:#e0e0e0;}.cls-35{fill:#dfdfdf;}.cls-36{fill:#dedede;}.cls-37{fill:#ddd;}.cls-38{fill:#dcdcdc;}.cls-39{fill:#dbdbdb;}.cls-40{fill:#dadada;}.cls-41{fill:#d9d9d9;}.cls-42{fill:#d8d8d8;}.cls-43{fill:#d7d7d7;}.cls-44{fill:#d6d6d6;}.cls-45{fill:#d5d5d5;}.cls-46{fill:#d4d4d4;}.cls-47{fill:#d3d3d3;}.cls-48{fill:#d2d2d2;}.cls-49{fill:#d1d1d1;}.cls-50{fill:#d0d0d0;}.cls-51{fill:#cfcfcf;}.cls-52{fill:#cecece;}.cls-53{fill:#cdcdcd;}.cls-54{fill:#ccc;}.cls-55{fill:#cbcbcb;}.cls-56{fill:#c9c9c9;}.cls-57{fill:#c8c8c8;}.cls-58{fill:#c7c7c7;}.cls-59{fill:#c6c6c6;}.cls-60{fill:#c5c5c5;}.cls-61{fill:#c4c4c4;}.cls-62{fill:#c3c3c3;}.cls-63{fill:#c2c2c2;}.cls-64{fill:#c1c1c1;}.cls-65{fill:silver;}.cls-66{fill:#bfbfbf;}.cls-67{fill:#bebebe;}.cls-68{fill:#bdbdbd;}.cls-69{fill:#bcbcbc;}.cls-70{fill:#bbb;}.cls-71{fill:#bababa;}.cls-72{fill:#b9b9b9;}.cls-73{fill:#b8b8b8;}.cls-74{fill:#b7b7b7;}.cls-75{fill:#b6b6b6;}.cls-76{fill:#b5b5b5;}.cls-77{fill:#b4b4b4;}.cls-78{fill:#b3b3b3;}.cls-79{fill:#b2b2b2;}.cls-80{fill:#b1b1b1;}.cls-81{fill:#b0b0b0;}.cls-82{fill:#afafaf;}.cls-83{fill:#aeaeae;}.cls-84{fill:#adadad;}.cls-85{fill:#acacac;}.cls-86{fill:#ababab;}.cls-87{fill:#aaa;}.cls-88{fill:#a9a9a9;}.cls-89{fill:#a8a8a8;}.cls-90{fill:#a7a7a7;}.cls-91{fill:#a6a6a6;}.cls-92{fill:#a5a5a5;}.cls-93{fill:#a4a4a4;}.cls-94{fill:#a3a3a3;}.cls-95{fill:#a2a2a2;}.cls-96{fill:#a1a1a1;}.cls-97{fill:#a0a0a0;}.cls-98{fill:#9f9f9f;}.cls-99{fill:#9e9e9e;}.cls-100{fill:#9d9d9d;}.cls-101{fill:#9c9c9c;}.cls-102{fill:#9b9b9b;}.cls-103{fill:#9a9a9a;}.cls-104{fill:#999;}.cls-105{fill:#989898;}.cls-106{fill:#979797;}.cls-107{fill:#969696;}.cls-108{fill:#959595;}.cls-109{fill:#949494;}.cls-110{fill:#939393;}.cls-111{fill:#929292;}.cls-112{fill:#919191;}.cls-113{fill:#909090;}.cls-114{fill:#8f8f8f;}.cls-115{fill:#8e8e8e;}.cls-116{fill:#8d8d8d;}.cls-117{fill:#8c8c8c;}.cls-118{fill:#8b8b8b;}.gray{fill:#8a8a8a;}</style></defs><g class="cls-1"><g id="_ÎÓÈ_1" data-name="—ÎÓÈ_1"><path class="cls-2" d="M330,300H300v30h30ZM60,30H30V60H60ZM180,60V30H150V60ZM450,330V300H420v30ZM390,810v30h30V810ZM120,60V30H90V60ZM450,810v30h30V810ZM390,330V300H360v30Zm0,390H360v30h30ZM510,330V300H480v30Zm600,390h30V690h-30Zm0,60h30V750h-30Zm-720,0H360v30h30ZM60,270H30v30H60ZM330,840H300v30h30Zm0-60H300v30h30ZM630,390V360H600v30Zm-60,0V360H540v30ZM330,720H300v30h30Zm0-60H300v30h30ZM510,390V360H480v30Zm600,630h30V990h-30ZM60,390H30v30H60Zm690,0V360H720v30ZM390,870v30h30V870Zm720,270h30v-30h-30ZM60,330H30v30H60Zm630,60V360H660v30ZM330,870v30h30V870Zm780,210h30v-30h-30Zm0-240h30V810h-30Zm0,60h30V870h-30ZM390,600H360v30h30Zm0-60H360v30h30Zm-60-60H300v30h30ZM60,90H30v30H60ZM330,360H300v30h30Zm0,60H300v30h30Zm60,240H360v30h30Zm0-240H360v30h30Zm0,60H360v30h30ZM330,600H300v30h30Zm60-240H360v30h30ZM60,210H30v30H60ZM1110,960h30V930h-30ZM330,540H300v30h30ZM450,390V360H420v30ZM60,150H30v30H60ZM660,840v30h30V840Zm60,0v30h30V840Zm390-660h30V150h-30ZM480,360V330H450v30ZM840,60V30H810V60ZM360,810H330v30h30Zm0-480H330v30h30Zm420,30V330H750v30Zm0-300V30H750V60ZM420,360V330H390v30Zm120,0V330H510v30ZM840,810h30V780H840Zm-60,30v30h30V840Zm330-540h30V270h-30ZM660,60V30H630V60Zm60,300V330H690v30Zm-120,0V330H570v30ZM840,870h30V840H840Zm270-630h30V210h-30ZM660,360V330H630v30ZM720,60V30H690V60Zm420,0V30h-30V60ZM960,60V30H930V60ZM360,630H330v30h30Zm0,60H330v30h30Zm60,150v30h30V840ZM1080,60V30h-30V60ZM360,750H330v30h30ZM1020,60V30H990V60ZM360,840v30h30V840Zm750-720h30V90h-30ZM360,450H330v30h30Zm0,120H330v30h30ZM600,840v30h30V840ZM360,390H330v30h30ZM540,840v30h30V840ZM810,390V360H780v30ZM480,840v30h30V840ZM360,510H330v30h30ZM900,60V30H870V60ZM240,60V30H210V60ZM750,810v30h30V810Zm60,30h30V810H810ZM750,330V300H720v30Zm60,0V300H780v30Zm300,210h30V510h-30Zm0,60h30V570h-30ZM870,330V300H840v30ZM810,780h30V750H810ZM360,60V30H330V60ZM690,810v30h30V810Zm-180,0v30h30V810ZM300,60V30H270V60Zm810,600h30V630h-30ZM570,330V300H540v30Zm0,480v30h30V810ZM690,330V300H660v30Zm150,60h30V360H840ZM630,810v30h30V810Zm0-480V300H600v30ZM840,630h30V600H840ZM600,60V30H570V60Zm510,300h30V330h-30ZM540,60V30H510V60ZM810,480h30V450H810Zm30-120V330H810v30Zm-30,60h30V390H810Zm30,330h30V720H840Zm0-180h30V540H840Zm0,120h30V660H840Zm270-270h30V390h-30ZM840,450h30V420H840ZM810,660h30V630H810Zm300-180h30V450h-30ZM420,60V30H390V60ZM810,600h30V570H810ZM480,60V30H450V60ZM810,720h30V690H810Zm0-180h30V510H810Zm30-30h30V480H840ZM450,1200h30v-30H450ZM1050,0h-30V30h30Zm60,0h-30V30h30ZM990,0H960V30h30ZM810,0H780V30h30Zm360,0h-30V30h30ZM570,540H540v30h30ZM930,0H900V30h30ZM600,570H570v30h30ZM1200,60V30h-30V60ZM600,630h30V600H600Zm540-480h30V120h-30ZM630,570V540H600v30ZM1140,60V90h30V60ZM750,0H720V30h30ZM870,0H840V30h30ZM150,0H120V30h30ZM690,0H660V30h30ZM90,0H60V30H90ZM210,0H180V30h30ZM0,0V30H30V0ZM0,60V90H30V60ZM270,0H240V30h30ZM570,0H540V30h30Zm60,0H600V30h30ZM510,0H480V30h30ZM330,0H300V30h30ZM0,120v30H30V120ZM390,0H360V30h30ZM510,540H480v30h30ZM660,690h30V660H660Zm0-120h30V540H660Zm-90,30H540v30h30Zm90,30h30V600H660Zm-60,30v30h30V660Zm-60,0v30h30V660Zm600-150h30V480h-30Zm0,180h30V660h-30ZM510,480H480v30h30Zm180,30V480H660v30Zm-120,0V480H540v30Zm60,0V480H600v30Zm510,120h30V600h-30Zm0-60h30V540h-30ZM660,540V510H630v30ZM630,660h30V630H630Zm0-60h30V570H630Zm510-330h30V240h-30Zm0-60h30V180h-30ZM570,630v30h30V630Zm-30,0H510v30h30Zm600-240h30V360h-30ZM540,570H510v30h30Zm600-120h30V420h-30Zm0-120h30V300h-30ZM600,540V510H570v30Zm-60-30H510v30h30ZM450,0H420V30h30ZM0,180v30H30V180Zm1200,900v-30h-30v30Zm0,120v-30h-30v30Zm0-300V870h-30v30Zm0,120V990h-30v30Zm-90,180h30v-30h-30Zm90-240V930h-30v30ZM810,1200h30v-30H810Zm240,0h30v-30h-30Zm-360,0h30v-30H690Zm60,0h30v-30H750Zm180,0h30v-30H930Zm60,0h30v-30H990Zm-120,0h30v-30H870Zm330-900V270h-30v30Zm0,60V330h-30v30Zm0-120V210h-30v30Zm0-120V90h-30v30Zm0,60V150h-30v30Zm0,240V390h-30v30Zm0,180V570h-30v30Zm0,120V690h-30v30Zm0-60V630h-30v30Zm0-180V450h-30v30Zm0,300V750h-30v30Zm0,60V810h-30v30ZM150,1020H120v30h30Zm1050,120v-30h-30v30ZM0,720v30H30V720Zm0-60v30H30V660ZM0,960v30H30V960ZM0,780v30H30V780ZM0,900v30H30V900Zm0-60v30H30V840ZM0,600v30H30V600ZM0,360v30H30V360Zm0-60v30H30V300Zm0-60v30H30V240ZM0,540v30H30V540Zm0-60v30H30V480Zm0-60v30H30V420Zm390,780h30v-30H390Zm-120,0h30v-30H270Zm60,0h30v-30H330ZM450,870v30h30V870Zm180,330h30v-30H630Zm-120,0h30v-30H510ZM0,1020v30H30v-30Zm570,180h30v-30H570Zm-360,0h30v-30H210ZM0,1080v30H30v-30Zm30,120H60v-30H30ZM0,1140v30H30v-30Zm90,60h30v-30H90Zm60,0h30v-30H150Zm90-60v30h30v-30Zm-180,0v30H90v-30ZM780,420V390H750v30Zm-60,0V390H690v30Zm-60,0V390H630v30Zm90,120h30V510H750ZM120,1140v30h30v-30ZM750,480h30V450H750ZM60,1050H30v30H60ZM750,600h30V570H750ZM480,420V390H450v30Zm-60-30H390v30h30Zm120,30V390H510v30ZM60,1110H30v30H60ZM600,420V390H570v30ZM750,780h30V750H750ZM630,750v30h30V750Zm-60,0v30h30V750Zm-60,0v30h30V750ZM360,1140v30h30v-30Zm-180,0v30h30v-30Zm240,0v30h30v-30Zm30-390v30h30V750ZM780,450h30V420H780ZM750,720h30V690H750Zm0-60h30V630H750Zm-60,90v30h30V750ZM300,1140v30h30v-30ZM60,990H30v30H60ZM420,690H390v30h30ZM60,630H30v30H60Zm0,60H30v30H60Zm720,60h30V720H780Zm0,60h30V780H780Zm-60-30v30h30V780Zm-60,0v30h30V780ZM60,570H30v30H60ZM780,690h30V660H780Zm0-120h30V540H780ZM60,450H30v30H60Zm720,60h30V480H780ZM60,510H30v30H60ZM780,630h30V600H780ZM480,780v30h30V780ZM420,630H390v30h30ZM60,870H30v30H60ZM420,570H390v30h30Zm30,150H420v30h30ZM60,930H30v30H60ZM420,510H390v30h30ZM600,780v30h30V780ZM60,750H30v30H60Zm480,30v30h30V780ZM420,750H390v30h30Zm0-300H390v30h30ZM60,810H30v30H60Zm360-30v30h30V780Zm60-60v30h30V720Zm660,390h30v-30h-30ZM540,480V450H510v30Zm180,0V450H690v30Zm300,660v30h30v-30ZM480,450H450v30h30Zm660,600h30v-30h-30ZM600,480V450H570v30ZM480,630H450v30h30Zm600,510v30h30v-30ZM480,690H450v30h30Zm0-120H450v30h30Zm0-60H450v30h30Zm660,660h30v-30h-30ZM660,480V450H630v30Zm480,330h30V780h-30Zm0,60h30V840h-30ZM570,690v30h30V690Zm-60,0v30h30V690Zm0-30H480v30h30ZM690,540h30V510H690ZM510,600H480v30h30Zm180,60h30V630H690Zm0-60h30V570H690Zm450,390h30V960h-30ZM630,690v30h30V690Zm510,240h30V900h-30ZM690,720h30V690H690Zm0-270V420H660v30Zm-120,0V420H540v30Zm-60,0V420H480v30Zm90,690v30h30v-30Zm60,0v30h30v-30Zm60,0v30h30v-30ZM630,450V420H600v30ZM450,660H420v30h30Zm0-60H420v30h30Zm30,540v30h30v-30ZM450,540H420v30h30Zm90,600v30h30v-30ZM450,480H420v30h30Zm0-60H420v30h30Zm510,720v30h30v-30ZM660,720v30h30V720Zm60,30h30V720H720Zm180,390v30h30v-30ZM600,720v30h30V720Zm-60,0v30h30V720Zm600,30h30V720h-30ZM750,450V420H720v30Zm30,690v30h30v-30ZM720,570h30V540H720Zm0-60h30V480H720Zm0,180h30V660H720Zm0-60h30V600H720Zm120,510v30h30v-30Zm360-600V510h-30v30ZM120,210H90v30h30ZM990,780h30V750H990Zm0,60h30V810H990Zm0-120h30V690H990ZM120,270H90v30h30ZM990,900h30V870H990ZM180,120V90H150v30ZM120,570H90v30h30Zm0-420H90v30h30ZM990,480h30V450H990ZM120,90H90v30h30ZM990,960h30V930H990Zm0-300h30V630H990Zm0-60h30V570H990ZM630,990v30h30V990Zm60,0v30h30V990ZM120,510H90v30h30ZM570,990v30h30V990ZM120,450H90v30h30ZM510,990v30h30V990Zm420,0v30h30V990Zm60,30h30V990H990ZM120,330H90v30h30ZM870,990v30h30V990ZM120,390H90v30h30ZM750,990v30h30V990Zm60,0v30h30V990ZM990,540h30V510H990ZM600,120V90H570v30ZM480,180V150H450v30Zm60-60V90H510v30Zm0,60V150H510v30Zm120,0V150H630v30Zm-60,0V150H570v30Zm60-60V90H630v30ZM300,180V150H270v30Zm120,0V150H390v30Zm300-60V90H690v30ZM240,180V150H210v30Zm240-60V90H450v30ZM360,180V150H330v30Zm-60-60V90H270v30ZM990,300h30V270H990Zm0-60h30V210H990Zm0,180h30V390H990ZM240,120V90H210v30ZM990,360h30V330H990Zm30-180V150H990v30Zm-240,0V150H750v30ZM420,120V90H390v30Zm540,60V150H930v30Zm-240,0V150H690v30Zm120,0V150H810v30Zm60,0V150H870v30ZM360,120V90H330v30Zm390,90V180H720v30ZM300,1080v30h30v-30Zm60,0v30h30v-30ZM570,210V180H540v30Zm60,0V180H600v30ZM450,990v30h30V990ZM180,150H150v30h30Zm240,930v30h30v-30ZM330,210V180H300v30ZM180,1080v30h30v-30ZM390,210V180H360v30Zm60,0V180H420v30ZM240,1080v30h30v-30ZM510,210V180H480v30ZM960,450h30V420H960Zm0-60h30V360H960Zm0-60h30V300H960ZM270,210V180H240v30Zm330,870v30h30v-30Zm60,0v30h30v-30ZM960,510h30V480H960Zm30-300V180H960v30ZM480,1080v30h30v-30ZM960,270h30V240H960Zm-30-60V180H900v30Zm-60,0V180H840v30ZM540,1080v30h30v-30ZM810,210V180H780v30Zm-120,0V180H660v30ZM210,900H180v30h30ZM120,750H90v30h30Zm90,90H180v30h30Zm-90-30H90v30h30Zm90,150H180v30h30Zm0-180H180v30h30ZM120,630H90v30h30Zm90,90H180v30h30ZM330,990v30h30V990Zm60,0v30h30V990Zm-180,0v30h30V990Zm60,0v30h30V990ZM120,690H90v30h30Zm90-510H180v30h30Zm-90,870H90v30h30Zm90-750H180v30h30Zm0,60H180v30h30Zm0,60H180v30h30Zm-90,660v30h30v-30Zm90-840H180v30h30ZM120,930H90v30h30Zm0,60H90v30h30Zm90-390H180v30h30Zm0,60H180v30h30ZM120,870H90v30h30Zm90-390H180v30h30Zm0,60H180v30h30Zm810,30h30V540h-30ZM750,150V120H720v30Zm120,900v30h30v-30ZM690,150V120H660v30Zm-60,0V120H600v30Zm300,900v30h30v-30ZM810,150V120H780v30Zm-60,900v30h30v-30ZM450,150V120H420v30Zm-60,0V120H360v30Zm480,0V120H840v30Zm-360,0V120H480v30Zm60,0V120H540v30Zm240,900v30h30v-30ZM930,150V120H900v30Zm90,240h30V360h-30Zm30,570h30V930h-30Zm-30-630h30V300h-30Zm0,120h30V420h-30Zm30,570h30V990h-30Zm-30-510h30V480h-30Zm0-300h30V180h-30Zm-30-60V120H960v30Zm60,0V120h-30v30Zm-30,120h30V240h-30Zm-30,780v30h30v-30Zm-300,0v30h30v-30Zm360,30h30v-30h-30ZM150,180H120v30h30Zm180,870v30h30v-30ZM150,660H120v30h30Zm120,390v30h30v-30ZM150,720H120v30h30Zm0-180H120v30h30Zm0,60H120v30h30Zm240,450v30h30v-30ZM150,960H120v30h30Zm0,90v30h30v-30Zm0-150H120v30h30Zm0-120H120v30h30Zm60,270v30h30v-30ZM150,840H120v30h30Zm30-630H150v30h30Zm-30-90H120v30h30Zm60,30V120H180v30Zm360,900v30h30v-30Zm480-150h30V870h-30ZM270,150V120H240v30ZM150,480H120v30h30Zm480,570v30h30v-30ZM150,360H120v30h30Zm300,690v30h30v-30ZM150,420H120v30h30Zm0-180H120v30h30Zm180-90V120H300v30ZM150,300H120v30h30Zm360,750v30h30v-30ZM180,750H150v30h30Zm0,120H150v30h30Zm870-690h30V150h-30ZM180,810H150v30h30Zm0,180H150v30h30Zm900-870V90h-30v30ZM180,930H150v30h30Zm870-630h30V270h-30ZM360,1020v30h30v-30Zm-60,0v30h30v-30Zm750-780h30V210h-30ZM420,1020v30h30v-30Zm-240,0v30h30v-30Zm60,0v30h30v-30ZM840,120V90H810v30ZM180,450H150v30h30Zm0-60H150v30h30Zm0-60H150v30h30Zm840-210V90H990v30ZM180,270H150v30h30ZM780,120V90H750v30ZM180,630H150v30h30Zm780-60h30V540H960ZM180,690H150v30h30Zm0-180H150v30h30Zm0,60H150v30h30ZM900,120V90H870v30Zm60,0V90H930v30Zm60,810h30V900h-30Zm0-60h30V840h-30Zm0,120h30V960h-30Zm30-270h30V690h-30Zm-30,330h30v-30h-30Zm30-390h30V630h-30Zm-30-30h30V600h-30Zm0,180h30V780h-30Zm30,30h30V810h-30Zm0-480h30V330h-30Zm-30,330h30V660h-30Zm0,60h30V720h-30Zm30,30h30V750h-30Zm-90,240v30h30v-30Zm90-540h30V450h-30ZM600,1020v30h30v-30Zm60,0v30h30v-30Zm390-600h30V390h-30ZM540,1020v30h30v-30Zm-60,0v30h30v-30Zm570-420h30V570h-30ZM900,1020v30h30v-30Zm-60,0v30h30v-30Zm210-480h30V510h-30ZM780,1020v30h30v-30Zm-60,0v30h30v-30ZM300,390H270v30h30ZM900,750h30V720H900Zm0,60h30V780H900ZM90,600H60v30H90ZM900,870h30V840H900Zm-60,30v30h30V900ZM90,660H60v30H90ZM900,930h30V900H900Zm0-240h30V660H900ZM90,480H60v30H90Zm810,30h30V480H900Zm0,60h30V540H900Zm0,60h30V600H900ZM90,540H60v30H90ZM480,900v30h30V900ZM90,900H60v30H90Zm330,0v30h30V900ZM90,720H60v30H90ZM360,900v30h30V900ZM90,960H60v30H90Zm450-60v30h30V900ZM900,450h30V420H900ZM90,780H60v30H90ZM720,900v30h30V900Zm60,0v30h30V900ZM90,840H60v30H90Zm570,60v30h30V900Zm-60,0v30h30V900ZM90,60H60V90H90ZM300,900v30h30V900Zm30-630V240H300v30Zm60,0V240H360v30ZM90,120H60v30H90ZM450,270V240H420v30ZM270,240H240v30h30Zm0,60H240v30h30Zm0,120H240v30h30Zm0,60H240v30h30ZM210,90V60H180V90Zm-60,0V60H120V90ZM270,360H240v30h30Zm240-90V240H480v30ZM90,420H60v30H90Zm0-60H60v30H90Zm840-90V240H900v30Zm-60,0V240H840v30Zm-300,0V240H540v30ZM900,390h30V360H900Zm0-60h30V300H900ZM90,300H60v30H90Zm540-30V240H600v30ZM90,180H60v30H90Zm720,90V240H780v30Zm-120,0V240H660v30ZM90,240H60v30H90Zm660,30V240H720v30ZM300,330H270v30h30ZM870,480h30V450H870Zm0,120h30V570H870Zm0,120h30V690H870Zm0-180h30V510H870Zm0,120h30V630H870ZM750,1110v30h30v-30Zm-60,0v30h30v-30Zm-120,0v30h30v-30ZM900,300V270H870v30Zm-60,0V270H810v30ZM630,1110v30h30v-30ZM870,420h30V390H870Zm0-60h30V330H870ZM750,870v30h30V870Zm240,240v30h30v-30Zm-180,0v30h30v-30ZM690,870v30h30V870Zm90-570V270H750v30Zm270,810v30h30v-30ZM570,870v30h30V870Zm60,0v30h30V870Zm240,240v30h30v-30Zm0-270h30V810H870Zm0-60h30V750H870Zm60,330v30h30v-30ZM810,870v30h30V870Zm60,30h30V870H870ZM300,570H270v30h30Zm0-60H270v30h30Zm0,360H270v30h30ZM150,1110v30h30v-30Zm-60,0v30h30v-30ZM300,450H270v30h30ZM510,870v30h30V870ZM300,690H270v30h30Zm0-60H270v30h30Zm0,180H270v30h30ZM90,1020H60v30H90ZM300,750H270v30h30Zm-90,360v30h30v-30ZM90,1080H60v30H90ZM360,300V270H330v30Zm240,0V270H570v30Zm-60,0V270H510v30Zm-90,810v30h30v-30ZM270,90V60H240V90ZM720,300V270H690v30Zm-60,0V270H630v30ZM390,1110v30h30v-30ZM300,270H270v30h30Zm-30,840v30h30v-30Zm240,0v30h30v-30ZM420,300V270H390v30Zm60,0V270H450v30ZM330,1110v30h30v-30Zm30-870V210H330v30ZM240,630H210v30h30Zm0-60H210v30h30Zm0,120H210v30h30Zm840,60h30V720h-30Zm0-60h30V660h-30ZM240,510H210v30h30Zm840,300h30V780h-30ZM240,750H210v30h30Zm840,120h30V840h-30ZM240,930H210v30h30Zm0-60H210v30h30Zm0-60H210v30h30Zm0-360H210v30h30Zm60-210V210H270v30ZM270,540H240v30h30ZM240,960v30h30V960ZM420,240V210H390v30Zm300,840v30h30v-30Zm360-690h30V360h-30ZM480,240V210H450v30ZM240,390H210v30h30Zm0-60H210v30h30Zm840,300h30V600h-30Zm0-60h30V540h-30ZM240,210H210v30h30Zm0,60H210v30h30Zm840,240h30V480h-30ZM540,960v30h30V960Zm360,120v30h30v-30Zm60-210h30V840H960Zm0,60h30V900H960Zm120,0h30V900h-30ZM900,960v30h30V960Zm60,120v30h30v-30Zm0-270h30V780H960Zm0-120h30V660H960ZM780,1080v30h30v-30ZM960,630h30V600H960Zm0,120h30V720H960ZM840,960v30h30V960Zm0,120v30h30v-30Zm120-90h30V960H960ZM420,960v30h30V960Zm660,90h30v-30h-30ZM780,960v30h30V960Zm300,30h30V960h-30ZM360,960v30h30V960Zm-60,0v30h30V960Zm180,0v30h30V960Zm60-720V210H510v30ZM660,960v30h30V960Zm360,120v30h30v-30ZM720,960v30h30V960Zm-120,0v30h30V960Zm480,150h30v-30h-30Zm0-660h30V420h-30ZM570,930v30h30V930Zm60,0v30h30V930Zm0-840V60H600V90ZM450,930v30h30V930Zm60,0v30h30V930ZM570,90V60H540V90Zm120,0V60H660V90ZM930,960h30V930H930ZM810,90V60H780V90Zm0,840v30h30V930ZM750,90V60H720V90ZM690,930v30h30V930Zm60,0v30h30V930Zm120,0v30h30V930ZM270,720H240v30h30ZM390,90V60H360V90ZM270,780H240v30h30Zm0-120H240v30h30Zm0-60H240v30h30ZM330,90V60H300V90Zm0,840v30h30V930Zm-60-90H240v30h30Zm120,90v30h30V930Zm-120,0v30h30V930ZM510,90V60H480V90ZM270,900H240v30h30ZM450,90V60H420V90Zm630,240h30V300h-30ZM960,240V210H930v30ZM930,900h30V870H930Zm150-750h30V120h-30ZM930,360h30V330H930Zm0-60h30V270H930Zm150-90h30V180h-30ZM600,240V210H570v30Zm60,0V210H630v30Zm60,0V210H690v30ZM1110,90V60h-30V90ZM840,240V210H810v30Zm240,30h30V240h-30ZM780,240V210H750v30Zm120,0V210H870v30ZM930,90V60H900V90Zm0,690h30V750H930Zm0-60h30V690H930Zm0-60h30V630H930Zm0,180h30V810H930ZM870,90V60H840V90Zm60,390h30V450H930Zm0-60h30V390H930ZM1050,90V60h-30V90ZM930,600h30V570H930ZM990,90V60H960V90ZM930,540h30V510H930Z"/><g class="cls-3"><path class="white" d="M1082.56,524.6,757.23,710.82a115.67,115.67,0,0,1-114.46,0L317.44,524.6a11.31,11.31,0,0,0-16.94,9.82v401a18.38,18.38,0,0,0,18.38,18.38h762.24a18.38,18.38,0,0,0,18.38-18.38v-401A11.32,11.32,0,0,0,1082.56,524.6ZM309.5,481.51,659.39,681.79a82.08,82.08,0,0,0,81.22,0L1090.5,481.51a18.88,18.88,0,0,0-9.38-35.27H318.88a18.88,18.88,0,0,0-9.38,35.27Z"/><path class="cls-4" d="M1081.71,523.75,756.38,710a115.58,115.58,0,0,1-114.45,0L316.59,523.75a11.32,11.32,0,0,0-16.94,9.82v401A18.38,18.38,0,0,0,318,952.91h762.24a18.38,18.38,0,0,0,18.38-18.38v-401A11.32,11.32,0,0,0,1081.71,523.75ZM308.65,480.66,658.54,680.94a82.08,82.08,0,0,0,81.22,0l349.89-200.28a18.88,18.88,0,0,0-9.38-35.26H318a18.88,18.88,0,0,0-9.38,35.26Z"/><path class="cls-5" d="M1080.87,522.9,755.53,709.12a115.58,115.58,0,0,1-114.45,0L315.74,522.9a11.32,11.32,0,0,0-16.94,9.82v401a18.38,18.38,0,0,0,18.38,18.38h762.25a18.38,18.38,0,0,0,18.38-18.38v-401A11.32,11.32,0,0,0,1080.87,522.9ZM307.81,479.81,657.7,680.09a82,82,0,0,0,81.21,0L1088.8,479.81a18.87,18.87,0,0,0-9.37-35.26H317.18a18.88,18.88,0,0,0-9.37,35.26Z"/><path class="cls-6" d="M1080,522.05,754.69,708.28a115.67,115.67,0,0,1-114.46,0L314.9,522.05A11.32,11.32,0,0,0,298,531.88v401a18.37,18.37,0,0,0,18.38,18.37h762.24A18.37,18.37,0,0,0,1097,932.84v-401A11.32,11.32,0,0,0,1080,522.05ZM307,479,656.85,679.24a82,82,0,0,0,81.22,0L1088,479a18.88,18.88,0,0,0-9.38-35.26H316.34A18.88,18.88,0,0,0,307,479Z"/><path class="cls-7" d="M1079.17,521.21,753.84,707.43a115.67,115.67,0,0,1-114.46,0L314.05,521.21A11.32,11.32,0,0,0,297.11,531V932a18.38,18.38,0,0,0,18.38,18.38h762.24A18.38,18.38,0,0,0,1096.11,932V531A11.32,11.32,0,0,0,1079.17,521.21ZM306.11,478.12,656,678.4a82.08,82.08,0,0,0,81.22,0l349.89-200.28a18.88,18.88,0,0,0-9.38-35.27H315.49a18.88,18.88,0,0,0-9.38,35.27Z"/><path class="cls-8" d="M1078.32,520.36,753,706.58a115.58,115.58,0,0,1-114.45,0L313.2,520.36a11.32,11.32,0,0,0-16.94,9.82v401a18.38,18.38,0,0,0,18.38,18.38h762.24a18.38,18.38,0,0,0,18.38-18.38v-401A11.32,11.32,0,0,0,1078.32,520.36ZM305.26,477.27,655.15,677.55a82.08,82.08,0,0,0,81.22,0l349.89-200.28a18.88,18.88,0,0,0-9.38-35.26H314.64a18.88,18.88,0,0,0-9.38,35.26Z"/><path class="cls-9" d="M1077.48,519.51,752.14,705.74a115.65,115.65,0,0,1-114.45,0L312.35,519.51a11.32,11.32,0,0,0-16.94,9.82v401a18.38,18.38,0,0,0,18.38,18.38H1076a18.38,18.38,0,0,0,18.38-18.38v-401A11.32,11.32,0,0,0,1077.48,519.51ZM304.42,476.42,654.31,676.7a82,82,0,0,0,81.21,0l349.89-200.28a18.87,18.87,0,0,0-9.37-35.26H313.79a18.88,18.88,0,0,0-9.37,35.26Z"/><path class="cls-10" d="M1076.63,518.66,751.3,704.89a115.67,115.67,0,0,1-114.46,0L311.51,518.66a11.32,11.32,0,0,0-16.94,9.83v401A18.37,18.37,0,0,0,313,947.82h762.24a18.37,18.37,0,0,0,18.38-18.37v-401A11.32,11.32,0,0,0,1076.63,518.66ZM303.57,475.57,653.46,675.85a82,82,0,0,0,81.22,0l349.89-200.28a18.88,18.88,0,0,0-9.38-35.26H313a18.88,18.88,0,0,0-9.38,35.26Z"/><path class="cls-11" d="M1075.78,517.82,750.45,704A115.67,115.67,0,0,1,636,704L310.66,517.82a11.32,11.32,0,0,0-16.94,9.82v401A18.38,18.38,0,0,0,312.1,947h762.24a18.38,18.38,0,0,0,18.38-18.38v-401A11.32,11.32,0,0,0,1075.78,517.82ZM302.72,474.73,652.61,675a82.08,82.08,0,0,0,81.22,0l349.89-200.28a18.88,18.88,0,0,0-9.38-35.27H312.1a18.88,18.88,0,0,0-9.38,35.27Z"/><path class="cls-12" d="M1074.93,517,749.6,703.19a115.58,115.58,0,0,1-114.45,0L309.81,517a11.32,11.32,0,0,0-16.94,9.82v401a18.38,18.38,0,0,0,18.38,18.38h762.24a18.38,18.38,0,0,0,18.38-18.38v-401A11.32,11.32,0,0,0,1074.93,517ZM301.87,473.88,651.76,674.16a82.08,82.08,0,0,0,81.22,0l349.89-200.28a18.88,18.88,0,0,0-9.38-35.26H311.25a18.88,18.88,0,0,0-9.38,35.26Z"/><path class="cls-13" d="M1074.09,516.12,748.75,702.35a115.65,115.65,0,0,1-114.45,0L309,516.12A11.32,11.32,0,0,0,292,525.94v401a18.38,18.38,0,0,0,18.38,18.38h762.25A18.38,18.38,0,0,0,1091,926.9v-401A11.32,11.32,0,0,0,1074.09,516.12ZM301,473,650.92,673.31a82,82,0,0,0,81.21,0L1082,473a18.87,18.87,0,0,0-9.37-35.26H310.4A18.88,18.88,0,0,0,301,473Z"/><path class="cls-14" d="M1073.24,515.27,747.91,701.5a115.67,115.67,0,0,1-114.46,0L308.12,515.27a11.32,11.32,0,0,0-16.94,9.83v401a18.38,18.38,0,0,0,18.38,18.38H1071.8a18.38,18.38,0,0,0,18.38-18.38v-401A11.32,11.32,0,0,0,1073.24,515.27ZM300.18,472.18,650.07,672.46a82,82,0,0,0,81.22,0l349.89-200.28a18.88,18.88,0,0,0-9.38-35.26H309.56a18.88,18.88,0,0,0-9.38,35.26Z"/><path class="cls-15" d="M1072.39,514.43,747.06,700.65a115.67,115.67,0,0,1-114.46,0L307.27,514.43a11.32,11.32,0,0,0-16.94,9.82v401a18.38,18.38,0,0,0,18.38,18.38H1071a18.38,18.38,0,0,0,18.38-18.38v-401A11.32,11.32,0,0,0,1072.39,514.43ZM299.33,471.34,649.22,671.62a82.08,82.08,0,0,0,81.22,0l349.89-200.28a18.88,18.88,0,0,0-9.38-35.27H308.71a18.88,18.88,0,0,0-9.38,35.27Z"/><path class="cls-16" d="M1071.54,513.58,746.21,699.8a115.58,115.58,0,0,1-114.45,0L306.42,513.58a11.32,11.32,0,0,0-16.94,9.82v401a18.38,18.38,0,0,0,18.38,18.38H1070.1a18.37,18.37,0,0,0,18.38-18.38v-401A11.32,11.32,0,0,0,1071.54,513.58ZM298.48,470.49,648.37,670.77a82.08,82.08,0,0,0,81.22,0l349.89-200.28a18.88,18.88,0,0,0-9.38-35.26H307.86a18.88,18.88,0,0,0-9.38,35.26Z"/><path class="cls-17" d="M1070.7,512.73,745.36,699a115.65,115.65,0,0,1-114.45,0L305.57,512.73a11.31,11.31,0,0,0-16.93,9.82v401A18.37,18.37,0,0,0,307,941.89h762.25a18.38,18.38,0,0,0,18.38-18.38v-401A11.32,11.32,0,0,0,1070.7,512.73ZM297.64,469.64,647.53,669.92a82,82,0,0,0,81.21,0l349.89-200.28a18.87,18.87,0,0,0-9.37-35.26H307a18.88,18.88,0,0,0-9.37,35.26Z"/><path class="cls-18" d="M1069.85,511.88,744.52,698.11a115.67,115.67,0,0,1-114.46,0L304.73,511.88a11.32,11.32,0,0,0-16.94,9.83v401a18.38,18.38,0,0,0,18.38,18.38h762.24a18.38,18.38,0,0,0,18.38-18.38v-401A11.32,11.32,0,0,0,1069.85,511.88ZM296.79,468.8,646.68,669.08a82.08,82.08,0,0,0,81.22,0l349.89-200.29a18.88,18.88,0,0,0-9.38-35.26H306.17a18.88,18.88,0,0,0-9.38,35.27Z"/><path class="cls-19" d="M1069,511,743.67,697.26a115.67,115.67,0,0,1-114.46,0L303.88,511a11.32,11.32,0,0,0-16.94,9.82v401a18.38,18.38,0,0,0,18.38,18.38h762.24a18.38,18.38,0,0,0,18.38-18.38v-401A11.32,11.32,0,0,0,1069,511ZM295.94,468,645.83,668.23a82.08,82.08,0,0,0,81.22,0L1076.94,468a18.88,18.88,0,0,0-9.38-35.27H305.32A18.88,18.88,0,0,0,295.94,468Z"/><path class="cls-20" d="M1068.15,510.19,742.82,696.41a115.58,115.58,0,0,1-114.45,0L303,510.19A11.32,11.32,0,0,0,286.09,520V921a18.38,18.38,0,0,0,18.38,18.38h762.24A18.37,18.37,0,0,0,1085.09,921V520A11.32,11.32,0,0,0,1068.15,510.19ZM295.09,467.1,645,667.38a82.08,82.08,0,0,0,81.22,0L1076.09,467.1a18.88,18.88,0,0,0-9.38-35.26H304.47a18.88,18.88,0,0,0-9.38,35.26Z"/><path class="cls-21" d="M1067.31,509.34,742,695.57a115.65,115.65,0,0,1-114.45,0L302.18,509.34a11.31,11.31,0,0,0-16.93,9.82v401a18.37,18.37,0,0,0,18.37,18.38h762.25a18.38,18.38,0,0,0,18.38-18.38v-401A11.32,11.32,0,0,0,1067.31,509.34ZM294.25,466.25,644.14,666.53a82,82,0,0,0,81.21,0l349.9-200.28a18.88,18.88,0,0,0-9.38-35.26H303.62a18.88,18.88,0,0,0-9.37,35.26Z"/><path class="cls-22" d="M1066.46,508.49,741.13,694.72a115.67,115.67,0,0,1-114.46,0L301.34,508.49a11.32,11.32,0,0,0-16.94,9.83v401a18.38,18.38,0,0,0,18.38,18.38H1065a18.38,18.38,0,0,0,18.38-18.38v-401A11.32,11.32,0,0,0,1066.46,508.49ZM293.4,465.41,643.29,665.69a82.08,82.08,0,0,0,81.22,0L1074.4,465.4a18.88,18.88,0,0,0-9.38-35.26H302.78a18.88,18.88,0,0,0-9.38,35.27Z"/><path class="cls-23" d="M1065.61,507.65,740.28,693.87a115.67,115.67,0,0,1-114.46,0L300.49,507.65a11.32,11.32,0,0,0-16.94,9.82v401a18.38,18.38,0,0,0,18.38,18.38h762.24a18.38,18.38,0,0,0,18.38-18.38v-401A11.32,11.32,0,0,0,1065.61,507.65ZM292.55,464.56,642.44,664.84a82.08,82.08,0,0,0,81.22,0l349.89-200.28a18.88,18.88,0,0,0-9.38-35.27H301.93a18.88,18.88,0,0,0-9.38,35.27Z"/><path class="cls-24" d="M1064.76,506.8,739.43,693A115.58,115.58,0,0,1,625,693L299.64,506.8a11.32,11.32,0,0,0-16.94,9.82v401A18.38,18.38,0,0,0,301.08,936h762.24a18.37,18.37,0,0,0,18.38-18.38v-401A11.32,11.32,0,0,0,1064.76,506.8ZM291.7,463.71,641.59,664a82.08,82.08,0,0,0,81.22,0L1072.7,463.71a18.88,18.88,0,0,0-9.38-35.26H301.08a18.88,18.88,0,0,0-9.38,35.26Z"/><path class="cls-25" d="M1063.92,506,738.58,692.18a115.65,115.65,0,0,1-114.45,0L298.79,506a11.31,11.31,0,0,0-16.93,9.82v401a18.37,18.37,0,0,0,18.37,18.38h762.25a18.38,18.38,0,0,0,18.38-18.38v-401A11.32,11.32,0,0,0,1063.92,506ZM290.86,462.86,640.75,663.14a82,82,0,0,0,81.21,0l349.9-200.28a18.88,18.88,0,0,0-9.38-35.26H300.23a18.88,18.88,0,0,0-9.37,35.26Z"/><path class="cls-26" d="M1063.07,505.1,737.74,691.33a115.67,115.67,0,0,1-114.46,0L298,505.1A11.32,11.32,0,0,0,281,514.93v401a18.38,18.38,0,0,0,18.38,18.38h762.24A18.38,18.38,0,0,0,1080,915.89v-401A11.32,11.32,0,0,0,1063.07,505.1ZM290,462,639.9,662.3a82.08,82.08,0,0,0,81.22,0L1071,462a18.88,18.88,0,0,0-9.38-35.27H299.39A18.88,18.88,0,0,0,290,462Z"/><path class="cls-27" d="M1062.22,504.26,736.89,690.48a115.67,115.67,0,0,1-114.46,0L297.1,504.26a11.32,11.32,0,0,0-16.94,9.82V915a18.38,18.38,0,0,0,18.38,18.38h762.24A18.38,18.38,0,0,0,1079.16,915v-401A11.32,11.32,0,0,0,1062.22,504.26ZM289.16,461.17,639.05,661.45a82.08,82.08,0,0,0,81.22,0l349.89-200.28a18.88,18.88,0,0,0-9.38-35.27H298.54a18.88,18.88,0,0,0-9.38,35.27Z"/><path class="cls-28" d="M1061.37,503.41,736,689.63a115.58,115.58,0,0,1-114.45,0L296.25,503.41a11.32,11.32,0,0,0-16.94,9.82v401a18.38,18.38,0,0,0,18.38,18.38h762.24a18.37,18.37,0,0,0,18.38-18.38v-401A11.32,11.32,0,0,0,1061.37,503.41ZM288.31,460.32,638.21,660.6a82.06,82.06,0,0,0,81.21,0l349.89-200.28a18.88,18.88,0,0,0-9.38-35.26H297.69a18.88,18.88,0,0,0-9.38,35.26Z"/><path class="cls-29" d="M1060.53,502.56,735.19,688.79a115.65,115.65,0,0,1-114.45,0L295.4,502.56a11.31,11.31,0,0,0-16.93,9.82v401a18.37,18.37,0,0,0,18.37,18.38h762.25a18.38,18.38,0,0,0,18.38-18.38v-401A11.32,11.32,0,0,0,1060.53,502.56ZM287.47,459.47,637.36,659.75a82,82,0,0,0,81.21,0l349.9-200.28a18.88,18.88,0,0,0-9.38-35.26H296.84a18.88,18.88,0,0,0-9.37,35.26Z"/><path class="cls-30" d="M1059.68,501.72,734.35,687.94a115.67,115.67,0,0,1-114.46,0L294.56,501.71a11.32,11.32,0,0,0-16.94,9.83v401A18.38,18.38,0,0,0,296,930.88h762.24a18.38,18.38,0,0,0,18.38-18.38v-401A11.32,11.32,0,0,0,1059.68,501.72ZM286.62,458.63,636.51,658.91a82.08,82.08,0,0,0,81.22,0l349.89-200.28a18.88,18.88,0,0,0-9.38-35.27H296a18.88,18.88,0,0,0-9.38,35.27Z"/><path class="cls-31" d="M1058.83,500.87,733.5,687.09a115.67,115.67,0,0,1-114.46,0L293.71,500.87a11.32,11.32,0,0,0-16.94,9.82v401A18.38,18.38,0,0,0,295.15,930h762.24a18.38,18.38,0,0,0,18.38-18.38v-401A11.32,11.32,0,0,0,1058.83,500.87ZM285.77,457.78,635.66,658.06a82.08,82.08,0,0,0,81.22,0l349.89-200.28a18.88,18.88,0,0,0-9.38-35.27H295.15a18.88,18.88,0,0,0-9.38,35.27Z"/><path class="cls-32" d="M1058,500,732.65,686.24a115.58,115.58,0,0,1-114.45,0L292.86,500a11.32,11.32,0,0,0-16.94,9.82v401a18.38,18.38,0,0,0,18.38,18.38h762.25a18.37,18.37,0,0,0,18.37-18.38v-401A11.32,11.32,0,0,0,1058,500ZM284.92,456.93l349.9,200.28a82.06,82.06,0,0,0,81.21,0l349.89-200.28a18.88,18.88,0,0,0-9.37-35.26H294.3a18.88,18.88,0,0,0-9.38,35.26Z"/><path class="cls-33" d="M1057.14,499.17,731.8,685.4a115.65,115.65,0,0,1-114.45,0L292,499.17A11.32,11.32,0,0,0,275.08,509V910a18.37,18.37,0,0,0,18.37,18.38H1055.7A18.38,18.38,0,0,0,1074.08,910V509A11.32,11.32,0,0,0,1057.14,499.17ZM284.08,456.08,634,656.36a82,82,0,0,0,81.21,0l349.9-200.28a18.88,18.88,0,0,0-9.38-35.26H293.45a18.88,18.88,0,0,0-9.37,35.26Z"/><path class="cls-34" d="M1056.29,498.33,731,684.55a115.67,115.67,0,0,1-114.46,0L291.17,498.32a11.32,11.32,0,0,0-16.94,9.83v401a18.38,18.38,0,0,0,18.38,18.38h762.24a18.38,18.38,0,0,0,18.38-18.38v-401A11.32,11.32,0,0,0,1056.29,498.33ZM283.23,455.24,633.12,655.52a82.08,82.08,0,0,0,81.22,0l349.89-200.28a18.88,18.88,0,0,0-9.38-35.27H292.61a18.88,18.88,0,0,0-9.38,35.27Z"/><path class="cls-35" d="M1055.44,497.48,730.11,683.7a115.67,115.67,0,0,1-114.46,0L290.32,497.48a11.32,11.32,0,0,0-16.94,9.82v401a18.38,18.38,0,0,0,18.38,18.38H1054a18.38,18.38,0,0,0,18.38-18.38v-401A11.32,11.32,0,0,0,1055.44,497.48ZM282.38,454.39,632.27,654.67a82.08,82.08,0,0,0,81.22,0l349.89-200.28a18.88,18.88,0,0,0-9.38-35.27H291.76a18.88,18.88,0,0,0-9.38,35.27Z"/><path class="cls-36" d="M1054.59,496.63,729.26,682.85a115.58,115.58,0,0,1-114.45,0L289.47,496.63a11.32,11.32,0,0,0-16.94,9.82v401a18.38,18.38,0,0,0,18.38,18.38h762.25a18.37,18.37,0,0,0,18.37-18.38v-401A11.32,11.32,0,0,0,1054.59,496.63ZM281.53,453.54l349.9,200.28a82.06,82.06,0,0,0,81.21,0l349.89-200.28a18.88,18.88,0,0,0-9.37-35.26H290.91a18.88,18.88,0,0,0-9.38,35.26Z"/><path class="cls-37" d="M1053.75,495.78,728.41,682A115.65,115.65,0,0,1,614,682L288.63,495.78a11.32,11.32,0,0,0-16.94,9.82v401a18.37,18.37,0,0,0,18.38,18.38h762.24a18.38,18.38,0,0,0,18.38-18.38v-401A11.32,11.32,0,0,0,1053.75,495.78ZM280.69,452.69,630.58,653a82,82,0,0,0,81.21,0l349.9-200.28a18.88,18.88,0,0,0-9.38-35.26H290.07a18.88,18.88,0,0,0-9.38,35.26Z"/><path class="cls-38" d="M1052.9,494.94,727.57,681.16a115.67,115.67,0,0,1-114.46,0L287.78,494.94a11.31,11.31,0,0,0-16.94,9.82v401a18.38,18.38,0,0,0,18.38,18.38h762.24a18.38,18.38,0,0,0,18.38-18.38v-401A11.32,11.32,0,0,0,1052.9,494.94ZM279.84,451.85,629.73,652.13a82.08,82.08,0,0,0,81.22,0l349.89-200.28a18.88,18.88,0,0,0-9.38-35.27H289.22a18.88,18.88,0,0,0-9.38,35.27Z"/><path class="cls-39" d="M1052.05,494.09,726.72,680.31a115.67,115.67,0,0,1-114.46,0L286.93,494.09A11.32,11.32,0,0,0,270,503.91v401a18.38,18.38,0,0,0,18.38,18.38h762.24A18.38,18.38,0,0,0,1069,904.87v-401A11.32,11.32,0,0,0,1052.05,494.09ZM279,451,628.88,651.28a82.08,82.08,0,0,0,81.22,0L1060,451a18.88,18.88,0,0,0-9.38-35.27H288.37A18.88,18.88,0,0,0,279,451Z"/><path class="cls-40" d="M1051.21,493.24,725.87,679.46a115.58,115.58,0,0,1-114.45,0L286.08,493.24a11.32,11.32,0,0,0-16.94,9.82V904a18.38,18.38,0,0,0,18.38,18.38h762.25A18.37,18.37,0,0,0,1068.14,904v-401A11.31,11.31,0,0,0,1051.21,493.24ZM278.14,450.15,628,650.43a82,82,0,0,0,81.21,0l349.89-200.28a18.88,18.88,0,0,0-9.37-35.26H287.52a18.88,18.88,0,0,0-9.38,35.26Z"/><path class="cls-41" d="M1050.36,492.39,725,678.62a115.65,115.65,0,0,1-114.45,0L285.24,492.39a11.32,11.32,0,0,0-16.94,9.82v401a18.37,18.37,0,0,0,18.38,18.38h762.24a18.37,18.37,0,0,0,18.38-18.38V502.22A11.32,11.32,0,0,0,1050.36,492.39ZM277.3,449.3,627.19,649.58a82,82,0,0,0,81.21,0L1058.3,449.3a18.88,18.88,0,0,0-9.38-35.26H286.68a18.88,18.88,0,0,0-9.38,35.26Z"/><path class="cls-42" d="M1049.51,491.55,724.18,677.77a115.67,115.67,0,0,1-114.46,0L284.39,491.55a11.31,11.31,0,0,0-16.94,9.82v401a18.38,18.38,0,0,0,18.38,18.38h762.24a18.38,18.38,0,0,0,18.38-18.38v-401A11.31,11.31,0,0,0,1049.51,491.55ZM276.45,448.46,626.34,648.74a82.08,82.08,0,0,0,81.22,0l349.89-200.28a18.88,18.88,0,0,0-9.38-35.27H285.83a18.88,18.88,0,0,0-9.38,35.27Z"/><path class="cls-43" d="M1048.66,490.7,723.33,676.92a115.6,115.6,0,0,1-114.46,0L283.54,490.7a11.32,11.32,0,0,0-16.94,9.82v401A18.38,18.38,0,0,0,285,919.86h762.24a18.38,18.38,0,0,0,18.38-18.38v-401A11.32,11.32,0,0,0,1048.66,490.7ZM275.6,447.61,625.49,647.89a82.08,82.08,0,0,0,81.22,0L1056.6,447.61a18.88,18.88,0,0,0-9.38-35.27H285a18.88,18.88,0,0,0-9.38,35.27Z"/><path class="cls-44" d="M1047.82,489.85,722.48,676.07a115.58,115.58,0,0,1-114.45,0L282.69,489.85a11.32,11.32,0,0,0-16.94,9.82v401A18.38,18.38,0,0,0,284.13,919h762.25a18.37,18.37,0,0,0,18.37-18.38v-401A11.31,11.31,0,0,0,1047.82,489.85ZM274.75,446.76,624.65,647a82,82,0,0,0,81.21,0l349.89-200.28a18.88,18.88,0,0,0-9.37-35.26H284.13a18.88,18.88,0,0,0-9.38,35.26Z"/><path class="cls-45" d="M1047,489,721.63,675.23a115.65,115.65,0,0,1-114.45,0L281.85,489a11.32,11.32,0,0,0-16.94,9.82v401a18.37,18.37,0,0,0,18.38,18.38h762.24a18.37,18.37,0,0,0,18.38-18.38V498.83A11.32,11.32,0,0,0,1047,489ZM273.91,445.91,623.8,646.19a82,82,0,0,0,81.21,0l349.9-200.28a18.88,18.88,0,0,0-9.38-35.26H283.29a18.88,18.88,0,0,0-9.38,35.26Z"/><path class="cls-46" d="M1046.12,488.16,720.79,674.38a115.67,115.67,0,0,1-114.46,0L281,488.16A11.31,11.31,0,0,0,264.06,498v401a18.38,18.38,0,0,0,18.38,18.38h762.24a18.38,18.38,0,0,0,18.38-18.38V498A11.31,11.31,0,0,0,1046.12,488.16ZM273.06,445.07,623,645.35a82.08,82.08,0,0,0,81.22,0l349.89-200.28a18.88,18.88,0,0,0-9.38-35.27H282.44a18.88,18.88,0,0,0-9.38,35.27Z"/><path class="cls-47" d="M1045.27,487.31,719.94,673.53a115.58,115.58,0,0,1-114.45,0L280.15,487.31a11.32,11.32,0,0,0-16.94,9.82v401a18.38,18.38,0,0,0,18.38,18.38h762.24a18.38,18.38,0,0,0,18.38-18.38v-401A11.32,11.32,0,0,0,1045.27,487.31ZM272.21,444.22,622.1,644.5a82.08,82.08,0,0,0,81.22,0l349.89-200.28a18.88,18.88,0,0,0-9.38-35.27H281.59a18.88,18.88,0,0,0-9.38,35.27Z"/><path class="cls-48" d="M1044.43,486.46,719.09,672.68a115.58,115.58,0,0,1-114.45,0L279.3,486.46a11.32,11.32,0,0,0-16.94,9.82v401a18.38,18.38,0,0,0,18.38,18.38H1043a18.38,18.38,0,0,0,18.38-18.38v-401A11.32,11.32,0,0,0,1044.43,486.46ZM271.36,443.37l349.9,200.28a82,82,0,0,0,81.21,0l349.89-200.28a18.88,18.88,0,0,0-9.37-35.26H280.74a18.88,18.88,0,0,0-9.38,35.26Z"/><path class="cls-49" d="M1043.58,485.61,718.24,671.84a115.65,115.65,0,0,1-114.45,0L278.46,485.61a11.32,11.32,0,0,0-16.94,9.83v401a18.37,18.37,0,0,0,18.38,18.38h762.24a18.37,18.37,0,0,0,18.38-18.38V495.44A11.32,11.32,0,0,0,1043.58,485.61ZM270.52,442.52,620.41,642.8a82,82,0,0,0,81.21,0l349.9-200.28a18.88,18.88,0,0,0-9.38-35.26H279.9a18.88,18.88,0,0,0-9.38,35.26Z"/><path class="cls-50" d="M1042.73,484.77,717.4,671a115.67,115.67,0,0,1-114.46,0L277.61,484.77a11.31,11.31,0,0,0-16.94,9.82v401a18.38,18.38,0,0,0,18.38,18.38h762.24a18.38,18.38,0,0,0,18.38-18.38v-401A11.31,11.31,0,0,0,1042.73,484.77ZM269.67,441.68,619.56,642a82.08,82.08,0,0,0,81.22,0l349.89-200.28a18.88,18.88,0,0,0-9.38-35.27H279.05a18.88,18.88,0,0,0-9.38,35.27Z"/><path class="cls-51" d="M1041.88,483.92,716.55,670.14a115.58,115.58,0,0,1-114.45,0L276.76,483.92a11.32,11.32,0,0,0-16.94,9.82v401a18.38,18.38,0,0,0,18.38,18.38h762.24a18.38,18.38,0,0,0,18.38-18.38v-401A11.32,11.32,0,0,0,1041.88,483.92ZM268.82,440.83,618.71,641.11a82.08,82.08,0,0,0,81.22,0l349.89-200.28a18.88,18.88,0,0,0-9.38-35.27H278.2a18.88,18.88,0,0,0-9.38,35.27Z"/><path class="cls-52" d="M1041,483.07,715.7,669.29a115.58,115.58,0,0,1-114.45,0L275.91,483.07A11.32,11.32,0,0,0,259,492.89v401a18.38,18.38,0,0,0,18.38,18.38H1039.6A18.38,18.38,0,0,0,1058,893.85v-401A11.32,11.32,0,0,0,1041,483.07ZM268,440l349.9,200.28a82,82,0,0,0,81.21,0L1049,440a18.88,18.88,0,0,0-9.37-35.26H277.35A18.88,18.88,0,0,0,268,440Z"/><path class="cls-53" d="M1040.19,482.22,714.85,668.45a115.65,115.65,0,0,1-114.45,0L275.07,482.22a11.32,11.32,0,0,0-16.94,9.83V893a18.37,18.37,0,0,0,18.38,18.38h762.24A18.37,18.37,0,0,0,1057.13,893V492.05A11.32,11.32,0,0,0,1040.19,482.22ZM267.13,439.13,617,639.41a82,82,0,0,0,81.21,0l349.9-200.28a18.88,18.88,0,0,0-9.38-35.26H276.51a18.88,18.88,0,0,0-9.38,35.26Z"/><path class="cls-54" d="M1039.34,481.38,714,667.6a115.67,115.67,0,0,1-114.46,0L274.22,481.38a11.31,11.31,0,0,0-16.94,9.82v401a18.38,18.38,0,0,0,18.38,18.38H1037.9a18.38,18.38,0,0,0,18.38-18.38v-401A11.31,11.31,0,0,0,1039.34,481.38ZM266.28,438.29,616.17,638.57a82.08,82.08,0,0,0,81.22,0l349.89-200.28A18.88,18.88,0,0,0,1037.9,403H275.66a18.88,18.88,0,0,0-9.38,35.27Z"/><path class="cls-55" d="M1038.49,480.53,713.16,666.75a115.58,115.58,0,0,1-114.45,0L273.37,480.53a11.32,11.32,0,0,0-16.94,9.82v401a18.38,18.38,0,0,0,18.38,18.38h762.24a18.38,18.38,0,0,0,18.38-18.38v-401A11.32,11.32,0,0,0,1038.49,480.53ZM265.43,437.44,615.32,637.72a82.08,82.08,0,0,0,81.22,0l349.89-200.28a18.88,18.88,0,0,0-9.38-35.26H274.81a18.88,18.88,0,0,0-9.38,35.26Z"/><path class="cls-2" d="M1037.65,479.68,712.31,665.9a115.58,115.58,0,0,1-114.45,0L272.52,479.68a11.32,11.32,0,0,0-16.94,9.82v401A18.38,18.38,0,0,0,274,908.84h762.25a18.38,18.38,0,0,0,18.38-18.38v-401A11.32,11.32,0,0,0,1037.65,479.68ZM264.58,436.59l349.9,200.28a82,82,0,0,0,81.21,0l349.89-200.28a18.88,18.88,0,0,0-9.37-35.26H274a18.88,18.88,0,0,0-9.38,35.26Z"/><path class="cls-56" d="M1036.8,478.83,711.46,665.06a115.65,115.65,0,0,1-114.45,0L271.68,478.83a11.32,11.32,0,0,0-16.94,9.83v401A18.37,18.37,0,0,0,273.12,908h762.24a18.37,18.37,0,0,0,18.38-18.37v-401A11.32,11.32,0,0,0,1036.8,478.83ZM263.74,435.74,613.63,636a82,82,0,0,0,81.21,0l349.9-200.28a18.88,18.88,0,0,0-9.38-35.26H273.12a18.88,18.88,0,0,0-9.38,35.26Z"/><path class="cls-57" d="M1036,478,710.62,664.21a115.67,115.67,0,0,1-114.46,0L270.83,478a11.31,11.31,0,0,0-16.94,9.82v401a18.38,18.38,0,0,0,18.38,18.38h762.24a18.38,18.38,0,0,0,18.38-18.38v-401A11.31,11.31,0,0,0,1036,478ZM262.89,434.9,612.78,635.18a82.08,82.08,0,0,0,81.22,0L1043.89,434.9a18.88,18.88,0,0,0-9.38-35.27H272.27a18.88,18.88,0,0,0-9.38,35.27Z"/><path class="cls-58" d="M1035.1,477.14,709.77,663.36a115.58,115.58,0,0,1-114.45,0L270,477.14A11.32,11.32,0,0,0,253,487v401a18.38,18.38,0,0,0,18.38,18.38h762.24A18.38,18.38,0,0,0,1052,887.92V487A11.32,11.32,0,0,0,1035.1,477.14ZM262,434.05,611.93,634.33a82.08,82.08,0,0,0,81.22,0L1043,434.05a18.88,18.88,0,0,0-9.38-35.26H271.42A18.88,18.88,0,0,0,262,434.05Z"/><path class="cls-59" d="M1034.26,476.29,708.92,662.51a115.58,115.58,0,0,1-114.45,0L269.13,476.29a11.32,11.32,0,0,0-16.94,9.82v401a18.38,18.38,0,0,0,18.38,18.38h762.25a18.38,18.38,0,0,0,18.38-18.38v-401A11.32,11.32,0,0,0,1034.26,476.29ZM261.19,433.2l349.9,200.28a82,82,0,0,0,81.21,0L1042.19,433.2a18.88,18.88,0,0,0-9.37-35.26H270.57a18.88,18.88,0,0,0-9.38,35.26Z"/><path class="cls-60" d="M1033.41,475.44,708.08,661.67a115.67,115.67,0,0,1-114.46,0L268.29,475.44a11.32,11.32,0,0,0-16.94,9.83v401a18.37,18.37,0,0,0,18.38,18.37H1032a18.37,18.37,0,0,0,18.38-18.37v-401A11.32,11.32,0,0,0,1033.41,475.44ZM260.35,432.35,610.24,632.63a82,82,0,0,0,81.21,0l349.9-200.28a18.88,18.88,0,0,0-9.38-35.26H269.73a18.88,18.88,0,0,0-9.38,35.26Z"/><path class="cls-60" d="M1032.56,474.6,707.23,660.82a115.67,115.67,0,0,1-114.46,0L267.44,474.6a11.31,11.31,0,0,0-16.94,9.82v401a18.38,18.38,0,0,0,18.38,18.38h762.24a18.38,18.38,0,0,0,18.38-18.38v-401A11.32,11.32,0,0,0,1032.56,474.6ZM259.5,431.51,609.39,631.79a82.08,82.08,0,0,0,81.22,0L1040.5,431.51a18.88,18.88,0,0,0-9.38-35.27H268.88a18.88,18.88,0,0,0-9.38,35.27Z"/><path class="cls-61" d="M1031.71,473.75,706.38,660a115.58,115.58,0,0,1-114.45,0L266.59,473.75a11.32,11.32,0,0,0-16.94,9.82v401A18.38,18.38,0,0,0,268,902.91h762.24a18.38,18.38,0,0,0,18.38-18.38v-401A11.32,11.32,0,0,0,1031.71,473.75ZM258.65,430.66,608.54,630.94a82.08,82.08,0,0,0,81.22,0l349.89-200.28a18.88,18.88,0,0,0-9.38-35.26H268a18.88,18.88,0,0,0-9.38,35.26Z"/><path class="cls-62" d="M1030.87,472.9,705.53,659.12a115.58,115.58,0,0,1-114.45,0L265.74,472.9a11.32,11.32,0,0,0-16.94,9.82v401a18.38,18.38,0,0,0,18.38,18.38h762.25a18.38,18.38,0,0,0,18.38-18.38v-401A11.32,11.32,0,0,0,1030.87,472.9ZM257.8,429.81,607.7,630.09a82,82,0,0,0,81.21,0L1038.8,429.81a18.87,18.87,0,0,0-9.37-35.26H267.18a18.88,18.88,0,0,0-9.38,35.26Z"/><path class="cls-63" d="M1030,472.05,704.69,658.28a115.67,115.67,0,0,1-114.46,0L264.9,472.05A11.32,11.32,0,0,0,248,481.88v401a18.37,18.37,0,0,0,18.38,18.37h762.24A18.37,18.37,0,0,0,1047,882.84v-401A11.32,11.32,0,0,0,1030,472.05ZM257,429,606.85,629.24a82,82,0,0,0,81.22,0L1038,429a18.88,18.88,0,0,0-9.38-35.26H266.34A18.88,18.88,0,0,0,257,429Z"/><path class="cls-64" d="M1029.17,471.21,703.84,657.43a115.67,115.67,0,0,1-114.46,0L264.05,471.21A11.32,11.32,0,0,0,247.11,481V882a18.38,18.38,0,0,0,18.38,18.38h762.24A18.38,18.38,0,0,0,1046.11,882V481A11.32,11.32,0,0,0,1029.17,471.21ZM256.11,428.12,606,628.4a82.08,82.08,0,0,0,81.22,0l349.89-200.28a18.88,18.88,0,0,0-9.38-35.27H265.49a18.88,18.88,0,0,0-9.38,35.27Z"/><path class="cls-65" d="M1028.32,470.36,703,656.58a115.58,115.58,0,0,1-114.45,0L263.2,470.36a11.32,11.32,0,0,0-16.94,9.82v401a18.38,18.38,0,0,0,18.38,18.38h762.24a18.38,18.38,0,0,0,18.38-18.38v-401A11.32,11.32,0,0,0,1028.32,470.36ZM255.26,427.27,605.15,627.55a82.08,82.08,0,0,0,81.22,0l349.89-200.28a18.88,18.88,0,0,0-9.38-35.26H264.64a18.88,18.88,0,0,0-9.38,35.26Z"/><path class="cls-66" d="M1027.48,469.51,702.14,655.74a115.65,115.65,0,0,1-114.45,0L262.35,469.51a11.32,11.32,0,0,0-16.94,9.82v401a18.38,18.38,0,0,0,18.38,18.38H1026a18.38,18.38,0,0,0,18.38-18.38v-401A11.32,11.32,0,0,0,1027.48,469.51ZM254.42,426.42,604.31,626.7a82,82,0,0,0,81.21,0l349.89-200.28a18.87,18.87,0,0,0-9.37-35.26H263.79a18.88,18.88,0,0,0-9.37,35.26Z"/><path class="cls-67" d="M1026.63,468.66,701.3,654.89a115.67,115.67,0,0,1-114.46,0L261.51,468.66a11.32,11.32,0,0,0-16.94,9.83v401A18.37,18.37,0,0,0,263,897.82h762.24a18.37,18.37,0,0,0,18.38-18.37v-401A11.32,11.32,0,0,0,1026.63,468.66ZM253.57,425.57,603.46,625.85a82,82,0,0,0,81.22,0l349.89-200.28a18.88,18.88,0,0,0-9.38-35.26H263a18.88,18.88,0,0,0-9.38,35.26Z"/><path class="cls-68" d="M1025.78,467.82,700.45,654A115.67,115.67,0,0,1,586,654L260.66,467.82a11.32,11.32,0,0,0-16.94,9.82v401A18.38,18.38,0,0,0,262.1,897h762.24a18.38,18.38,0,0,0,18.38-18.38v-401A11.32,11.32,0,0,0,1025.78,467.82ZM252.72,424.73,602.61,625a82.08,82.08,0,0,0,81.22,0l349.89-200.28a18.88,18.88,0,0,0-9.38-35.27H262.1a18.88,18.88,0,0,0-9.38,35.27Z"/><path class="cls-69" d="M1024.93,467,699.6,653.19a115.58,115.58,0,0,1-114.45,0L259.81,467a11.32,11.32,0,0,0-16.94,9.82v401a18.38,18.38,0,0,0,18.38,18.38h762.24a18.38,18.38,0,0,0,18.38-18.38v-401A11.32,11.32,0,0,0,1024.93,467ZM251.87,423.88,601.76,624.16a82.08,82.08,0,0,0,81.22,0l349.89-200.28a18.88,18.88,0,0,0-9.38-35.26H261.25a18.88,18.88,0,0,0-9.38,35.26Z"/><path class="cls-70" d="M1024.09,466.12,698.75,652.35a115.65,115.65,0,0,1-114.45,0L259,466.12A11.32,11.32,0,0,0,242,475.94v401a18.38,18.38,0,0,0,18.38,18.38h762.25A18.38,18.38,0,0,0,1041,876.9v-401A11.32,11.32,0,0,0,1024.09,466.12ZM251,423,600.92,623.31a82,82,0,0,0,81.21,0L1032,423a18.87,18.87,0,0,0-9.37-35.26H260.4A18.88,18.88,0,0,0,251,423Z"/><path class="cls-71" d="M1023.24,465.27,697.91,651.5a115.67,115.67,0,0,1-114.46,0L258.12,465.27a11.32,11.32,0,0,0-16.94,9.83v401a18.38,18.38,0,0,0,18.38,18.38H1021.8a18.38,18.38,0,0,0,18.38-18.38v-401A11.32,11.32,0,0,0,1023.24,465.27ZM250.18,422.18,600.07,622.46a82,82,0,0,0,81.22,0l349.89-200.28a18.88,18.88,0,0,0-9.38-35.26H259.56a18.88,18.88,0,0,0-9.38,35.26Z"/><path class="cls-72" d="M1022.39,464.43,697.06,650.65a115.67,115.67,0,0,1-114.46,0L257.27,464.43a11.32,11.32,0,0,0-16.94,9.82v401a18.38,18.38,0,0,0,18.38,18.38H1021a18.38,18.38,0,0,0,18.38-18.38v-401A11.32,11.32,0,0,0,1022.39,464.43ZM249.33,421.34,599.22,621.62a82.08,82.08,0,0,0,81.22,0l349.89-200.28a18.88,18.88,0,0,0-9.38-35.27H258.71a18.88,18.88,0,0,0-9.38,35.27Z"/><path class="cls-73" d="M1021.54,463.58,696.21,649.8a115.58,115.58,0,0,1-114.45,0L256.42,463.58a11.32,11.32,0,0,0-16.94,9.82v401a18.38,18.38,0,0,0,18.38,18.38H1020.1a18.37,18.37,0,0,0,18.38-18.38v-401A11.32,11.32,0,0,0,1021.54,463.58ZM248.48,420.49,598.37,620.77a82.08,82.08,0,0,0,81.22,0l349.89-200.28a18.88,18.88,0,0,0-9.38-35.26H257.86a18.88,18.88,0,0,0-9.38,35.26Z"/><path class="cls-74" d="M1020.7,462.73,695.36,649a115.65,115.65,0,0,1-114.45,0L255.57,462.73a11.31,11.31,0,0,0-16.93,9.82v401A18.37,18.37,0,0,0,257,891.89h762.25a18.38,18.38,0,0,0,18.38-18.38v-401A11.32,11.32,0,0,0,1020.7,462.73ZM247.64,419.64,597.53,619.92a82,82,0,0,0,81.21,0l349.89-200.28a18.87,18.87,0,0,0-9.37-35.26H257a18.88,18.88,0,0,0-9.37,35.26Z"/><path class="cls-75" d="M1019.85,461.88,694.52,648.11a115.67,115.67,0,0,1-114.46,0L254.73,461.88a11.32,11.32,0,0,0-16.94,9.83v401a18.38,18.38,0,0,0,18.38,18.38h762.24a18.38,18.38,0,0,0,18.38-18.38v-401A11.32,11.32,0,0,0,1019.85,461.88ZM246.79,418.8,596.68,619.08a82.08,82.08,0,0,0,81.22,0l349.89-200.29a18.88,18.88,0,0,0-9.38-35.26H256.17a18.88,18.88,0,0,0-9.38,35.27Z"/><path class="cls-76" d="M1019,461,693.67,647.26a115.67,115.67,0,0,1-114.46,0L253.88,461a11.32,11.32,0,0,0-16.94,9.82v401a18.38,18.38,0,0,0,18.38,18.38h762.24a18.38,18.38,0,0,0,18.38-18.38v-401A11.32,11.32,0,0,0,1019,461ZM245.94,418,595.83,618.23a82.08,82.08,0,0,0,81.22,0L1026.94,418a18.88,18.88,0,0,0-9.38-35.27H255.32A18.88,18.88,0,0,0,245.94,418Z"/><path class="cls-77" d="M1018.15,460.19,692.82,646.41a115.58,115.58,0,0,1-114.45,0L253,460.19A11.32,11.32,0,0,0,236.09,470V871a18.38,18.38,0,0,0,18.38,18.38h762.24A18.37,18.37,0,0,0,1035.09,871V470A11.32,11.32,0,0,0,1018.15,460.19ZM245.09,417.1,595,617.38a82.08,82.08,0,0,0,81.22,0L1026.09,417.1a18.88,18.88,0,0,0-9.38-35.26H254.47a18.88,18.88,0,0,0-9.38,35.26Z"/><path class="cls-78" d="M1017.31,459.34,692,645.57a115.65,115.65,0,0,1-114.45,0L252.18,459.34a11.31,11.31,0,0,0-16.93,9.82v401a18.37,18.37,0,0,0,18.37,18.38h762.25a18.38,18.38,0,0,0,18.38-18.38v-401A11.32,11.32,0,0,0,1017.31,459.34ZM244.25,416.25,594.14,616.53a82,82,0,0,0,81.21,0l349.9-200.28a18.88,18.88,0,0,0-9.38-35.26H253.62a18.88,18.88,0,0,0-9.37,35.26Z"/><path class="cls-79" d="M1016.46,458.49,691.13,644.72a115.67,115.67,0,0,1-114.46,0L251.34,458.49a11.32,11.32,0,0,0-16.94,9.83v401a18.38,18.38,0,0,0,18.38,18.38H1015a18.38,18.38,0,0,0,18.38-18.38v-401A11.32,11.32,0,0,0,1016.46,458.49ZM243.4,415.41,593.29,615.69a82.08,82.08,0,0,0,81.22,0L1024.4,415.4a18.88,18.88,0,0,0-9.38-35.26H252.78a18.88,18.88,0,0,0-9.38,35.27Z"/><path class="cls-80" d="M1015.61,457.65,690.28,643.87a115.67,115.67,0,0,1-114.46,0L250.49,457.65a11.32,11.32,0,0,0-16.94,9.82v401a18.38,18.38,0,0,0,18.38,18.38h762.24a18.38,18.38,0,0,0,18.38-18.38v-401A11.32,11.32,0,0,0,1015.61,457.65ZM242.55,414.56,592.44,614.84a82.08,82.08,0,0,0,81.22,0l349.89-200.28a18.88,18.88,0,0,0-9.38-35.27H251.93a18.88,18.88,0,0,0-9.38,35.27Z"/><path class="cls-81" d="M1014.76,456.8,689.43,643A115.58,115.58,0,0,1,575,643L249.64,456.8a11.32,11.32,0,0,0-16.94,9.82v401A18.38,18.38,0,0,0,251.08,886h762.24a18.37,18.37,0,0,0,18.38-18.38v-401A11.32,11.32,0,0,0,1014.76,456.8ZM241.7,413.71,591.6,614a82.06,82.06,0,0,0,81.21,0L1022.7,413.71a18.88,18.88,0,0,0-9.38-35.26H251.08a18.88,18.88,0,0,0-9.38,35.26Z"/><path class="cls-82" d="M1013.92,456,688.58,642.18a115.65,115.65,0,0,1-114.45,0L248.79,456a11.31,11.31,0,0,0-16.93,9.82v401a18.37,18.37,0,0,0,18.37,18.38h762.25a18.38,18.38,0,0,0,18.38-18.38v-401A11.32,11.32,0,0,0,1013.92,456ZM240.86,412.86,590.75,613.14a82,82,0,0,0,81.21,0l349.9-200.28a18.88,18.88,0,0,0-9.38-35.26H250.23a18.88,18.88,0,0,0-9.37,35.26Z"/><path class="cls-83" d="M1013.07,455.1,687.74,641.33a115.67,115.67,0,0,1-114.46,0L248,455.1A11.32,11.32,0,0,0,231,464.93v401a18.38,18.38,0,0,0,18.38,18.38h762.24A18.38,18.38,0,0,0,1030,865.89v-401A11.32,11.32,0,0,0,1013.07,455.1ZM240,412,589.9,612.3a82.08,82.08,0,0,0,81.22,0L1021,412a18.88,18.88,0,0,0-9.38-35.26H249.39A18.88,18.88,0,0,0,240,412Z"/><path class="cls-84" d="M1012.22,454.26,686.89,640.48a115.67,115.67,0,0,1-114.46,0L247.1,454.26a11.32,11.32,0,0,0-16.94,9.82V865a18.38,18.38,0,0,0,18.38,18.38h762.24A18.38,18.38,0,0,0,1029.16,865v-401A11.32,11.32,0,0,0,1012.22,454.26ZM239.16,411.17,589.05,611.45a82.08,82.08,0,0,0,81.22,0l349.89-200.28a18.88,18.88,0,0,0-9.38-35.27H248.54a18.88,18.88,0,0,0-9.38,35.27Z"/><path class="cls-85" d="M1011.37,453.41,686,639.63a115.58,115.58,0,0,1-114.45,0L246.25,453.41a11.32,11.32,0,0,0-16.94,9.82v401a18.38,18.38,0,0,0,18.38,18.38h762.24a18.37,18.37,0,0,0,18.38-18.38v-401A11.32,11.32,0,0,0,1011.37,453.41ZM238.31,410.32,588.21,610.6a82.06,82.06,0,0,0,81.21,0l349.89-200.28a18.88,18.88,0,0,0-9.38-35.26H247.69a18.88,18.88,0,0,0-9.38,35.26Z"/><path class="cls-86" d="M1010.53,452.56,685.19,638.79a115.65,115.65,0,0,1-114.45,0L245.4,452.56a11.31,11.31,0,0,0-16.93,9.82v401a18.37,18.37,0,0,0,18.37,18.38h762.25a18.38,18.38,0,0,0,18.38-18.38v-401A11.32,11.32,0,0,0,1010.53,452.56ZM237.47,409.47,587.36,609.75a82,82,0,0,0,81.21,0l349.9-200.28a18.88,18.88,0,0,0-9.38-35.26H246.84a18.88,18.88,0,0,0-9.37,35.26Z"/><path class="cls-87" d="M1009.68,451.72,684.35,637.94a115.67,115.67,0,0,1-114.46,0L244.56,451.71a11.32,11.32,0,0,0-16.94,9.83v401A18.38,18.38,0,0,0,246,880.88h762.24a18.38,18.38,0,0,0,18.38-18.38v-401A11.32,11.32,0,0,0,1009.68,451.72ZM236.62,408.63,586.51,608.91a82.08,82.08,0,0,0,81.22,0l349.89-200.28a18.88,18.88,0,0,0-9.38-35.27H246a18.88,18.88,0,0,0-9.38,35.27Z"/><path class="cls-88" d="M1008.83,450.87,683.5,637.09a115.67,115.67,0,0,1-114.46,0L243.71,450.87a11.32,11.32,0,0,0-16.94,9.82v401A18.38,18.38,0,0,0,245.15,880h762.24a18.38,18.38,0,0,0,18.38-18.38v-401A11.32,11.32,0,0,0,1008.83,450.87ZM235.77,407.78,585.66,608.06a82.08,82.08,0,0,0,81.22,0l349.89-200.28a18.88,18.88,0,0,0-9.38-35.27H245.15a18.88,18.88,0,0,0-9.38,35.27Z"/><path class="cls-89" d="M1008,450,682.65,636.24a115.58,115.58,0,0,1-114.45,0L242.86,450a11.32,11.32,0,0,0-16.94,9.82v401a18.38,18.38,0,0,0,18.38,18.38h762.25a18.37,18.37,0,0,0,18.37-18.38v-401A11.32,11.32,0,0,0,1008,450ZM234.92,406.93l349.9,200.28a82.06,82.06,0,0,0,81.21,0l349.89-200.28a18.88,18.88,0,0,0-9.37-35.26H244.3a18.88,18.88,0,0,0-9.38,35.26Z"/><path class="cls-90" d="M1007.14,449.17,681.8,635.4a115.65,115.65,0,0,1-114.45,0L242,449.17A11.32,11.32,0,0,0,225.08,459V860a18.37,18.37,0,0,0,18.37,18.38H1005.7A18.38,18.38,0,0,0,1024.08,860V459A11.32,11.32,0,0,0,1007.14,449.17ZM234.08,406.08,584,606.36a82,82,0,0,0,81.21,0l349.9-200.28a18.88,18.88,0,0,0-9.38-35.26H243.45a18.88,18.88,0,0,0-9.37,35.26Z"/><path class="cls-91" d="M1006.29,448.33,681,634.55a115.67,115.67,0,0,1-114.46,0L241.17,448.32a11.32,11.32,0,0,0-16.94,9.83v401a18.38,18.38,0,0,0,18.38,18.38h762.24a18.38,18.38,0,0,0,18.38-18.38v-401A11.32,11.32,0,0,0,1006.29,448.33ZM233.23,405.24,583.12,605.52a82.08,82.08,0,0,0,81.22,0l349.89-200.28a18.88,18.88,0,0,0-9.38-35.27H242.61a18.88,18.88,0,0,0-9.38,35.27Z"/><path class="cls-92" d="M1005.44,447.48,680.11,633.7a115.67,115.67,0,0,1-114.46,0L240.32,447.48a11.32,11.32,0,0,0-16.94,9.82v401a18.38,18.38,0,0,0,18.38,18.38H1004a18.38,18.38,0,0,0,18.38-18.38v-401A11.32,11.32,0,0,0,1005.44,447.48ZM232.38,404.39,582.27,604.67a82.08,82.08,0,0,0,81.22,0l349.89-200.28a18.88,18.88,0,0,0-9.38-35.27H241.76a18.88,18.88,0,0,0-9.38,35.27Z"/><path class="cls-93" d="M1004.59,446.63,679.26,632.85a115.58,115.58,0,0,1-114.45,0L239.47,446.63a11.32,11.32,0,0,0-16.94,9.82v401a18.38,18.38,0,0,0,18.38,18.38h762.25a18.37,18.37,0,0,0,18.37-18.38v-401A11.32,11.32,0,0,0,1004.59,446.63ZM231.53,403.54l349.9,200.28a82.06,82.06,0,0,0,81.21,0l349.89-200.28a18.88,18.88,0,0,0-9.37-35.26H240.91a18.88,18.88,0,0,0-9.38,35.26Z"/><path class="cls-94" d="M1003.75,445.78,678.41,632A115.65,115.65,0,0,1,564,632L238.63,445.78a11.32,11.32,0,0,0-16.94,9.82v401a18.37,18.37,0,0,0,18.38,18.38h762.24a18.38,18.38,0,0,0,18.38-18.38v-401A11.32,11.32,0,0,0,1003.75,445.78ZM230.69,402.69,580.58,603a82,82,0,0,0,81.21,0l349.9-200.28a18.88,18.88,0,0,0-9.38-35.26H240.07a18.88,18.88,0,0,0-9.38,35.26Z"/><path class="cls-95" d="M1002.9,444.94,677.57,631.16a115.67,115.67,0,0,1-114.46,0L237.78,444.94a11.31,11.31,0,0,0-16.94,9.82v401a18.38,18.38,0,0,0,18.38,18.38h762.24a18.38,18.38,0,0,0,18.38-18.38v-401A11.32,11.32,0,0,0,1002.9,444.94ZM229.84,401.85,579.73,602.13a82.08,82.08,0,0,0,81.22,0l349.89-200.28a18.88,18.88,0,0,0-9.38-35.27H239.22a18.88,18.88,0,0,0-9.38,35.27Z"/><path class="cls-96" d="M1002.05,444.09,676.72,630.31a115.67,115.67,0,0,1-114.46,0L236.93,444.09A11.32,11.32,0,0,0,220,453.91v401a18.38,18.38,0,0,0,18.38,18.38h762.24A18.38,18.38,0,0,0,1019,854.87v-401A11.32,11.32,0,0,0,1002.05,444.09ZM229,401,578.88,601.28a82.08,82.08,0,0,0,81.22,0L1010,401a18.88,18.88,0,0,0-9.38-35.27H238.37A18.88,18.88,0,0,0,229,401Z"/><path class="cls-97" d="M1001.21,443.24,675.87,629.46a115.58,115.58,0,0,1-114.45,0L236.08,443.24a11.32,11.32,0,0,0-16.94,9.82V854a18.38,18.38,0,0,0,18.38,18.38H999.77A18.37,18.37,0,0,0,1018.14,854v-401A11.31,11.31,0,0,0,1001.21,443.24ZM228.14,400.15,578,600.43a82,82,0,0,0,81.21,0l349.89-200.28a18.88,18.88,0,0,0-9.37-35.26H237.52a18.88,18.88,0,0,0-9.38,35.26Z"/><path class="cls-98" d="M1000.36,442.39,675,628.62a115.65,115.65,0,0,1-114.45,0L235.24,442.39a11.32,11.32,0,0,0-16.94,9.82v401a18.37,18.37,0,0,0,18.38,18.38H998.92a18.37,18.37,0,0,0,18.38-18.38V452.22A11.32,11.32,0,0,0,1000.36,442.39ZM227.3,399.3,577.19,599.58a82,82,0,0,0,81.21,0L1008.3,399.3A18.88,18.88,0,0,0,998.92,364H236.68a18.88,18.88,0,0,0-9.38,35.26Z"/><path class="cls-99" d="M999.51,441.55,674.18,627.77a115.67,115.67,0,0,1-114.46,0L234.39,441.55a11.31,11.31,0,0,0-16.94,9.82v401a18.38,18.38,0,0,0,18.38,18.38H998.07a18.38,18.38,0,0,0,18.38-18.38v-401A11.31,11.31,0,0,0,999.51,441.55ZM226.45,398.46,576.34,598.74a82.08,82.08,0,0,0,81.22,0l349.89-200.28a18.88,18.88,0,0,0-9.38-35.27H235.83a18.88,18.88,0,0,0-9.38,35.27Z"/><path class="cls-100" d="M998.66,440.7,673.33,626.92a115.6,115.6,0,0,1-114.46,0L233.54,440.7a11.32,11.32,0,0,0-16.94,9.82v401A18.38,18.38,0,0,0,235,869.86H997.22a18.38,18.38,0,0,0,18.38-18.38v-401A11.32,11.32,0,0,0,998.66,440.7ZM225.6,397.61,575.49,597.89a82.08,82.08,0,0,0,81.22,0L1006.6,397.61a18.88,18.88,0,0,0-9.38-35.27H235a18.88,18.88,0,0,0-9.38,35.27Z"/><path class="cls-101" d="M997.82,439.85,672.48,626.07a115.58,115.58,0,0,1-114.45,0L232.69,439.85a11.32,11.32,0,0,0-16.94,9.82v401A18.38,18.38,0,0,0,234.13,869H996.38a18.37,18.37,0,0,0,18.37-18.38v-401A11.31,11.31,0,0,0,997.82,439.85ZM224.75,396.76,574.65,597a82,82,0,0,0,81.21,0l349.89-200.28a18.88,18.88,0,0,0-9.37-35.26H234.13a18.88,18.88,0,0,0-9.38,35.26Z"/><path class="cls-102" d="M997,439,671.63,625.23a115.65,115.65,0,0,1-114.45,0L231.85,439a11.32,11.32,0,0,0-16.94,9.82v401a18.37,18.37,0,0,0,18.38,18.38H995.53a18.37,18.37,0,0,0,18.38-18.38V448.83A11.32,11.32,0,0,0,997,439ZM223.91,395.91,573.8,596.19a82,82,0,0,0,81.21,0l349.9-200.28a18.88,18.88,0,0,0-9.38-35.26H233.29a18.88,18.88,0,0,0-9.38,35.26Z"/><path class="cls-103" d="M996.12,438.16,670.79,624.38a115.67,115.67,0,0,1-114.46,0L231,438.16A11.31,11.31,0,0,0,214.06,448v401a18.38,18.38,0,0,0,18.38,18.38H994.68a18.38,18.38,0,0,0,18.38-18.38V448A11.31,11.31,0,0,0,996.12,438.16ZM223.06,395.07,573,595.35a82.08,82.08,0,0,0,81.22,0l349.89-200.28a18.88,18.88,0,0,0-9.38-35.27H232.44a18.88,18.88,0,0,0-9.38,35.27Z"/><path class="cls-104" d="M995.27,437.31,669.94,623.53a115.6,115.6,0,0,1-114.46,0L230.15,437.31a11.32,11.32,0,0,0-16.94,9.82v401a18.38,18.38,0,0,0,18.38,18.38H993.83a18.38,18.38,0,0,0,18.38-18.38v-401A11.32,11.32,0,0,0,995.27,437.31ZM222.21,394.22,572.1,594.5a82.08,82.08,0,0,0,81.22,0l349.89-200.28A18.88,18.88,0,0,0,993.83,359H231.59a18.88,18.88,0,0,0-9.38,35.27Z"/><path class="cls-105" d="M994.43,436.46,669.09,622.68a115.58,115.58,0,0,1-114.45,0L229.3,436.46a11.32,11.32,0,0,0-16.94,9.82v401a18.38,18.38,0,0,0,18.38,18.38H993a18.37,18.37,0,0,0,18.37-18.38v-401A11.31,11.31,0,0,0,994.43,436.46ZM221.36,393.37l349.9,200.28a82,82,0,0,0,81.21,0l349.89-200.28A18.88,18.88,0,0,0,993,358.11H230.74a18.88,18.88,0,0,0-9.38,35.26Z"/><path class="cls-106" d="M993.58,435.61,668.24,621.84a115.65,115.65,0,0,1-114.45,0L228.46,435.61a11.32,11.32,0,0,0-16.94,9.83v401a18.37,18.37,0,0,0,18.38,18.38H992.14a18.37,18.37,0,0,0,18.38-18.38V445.44A11.32,11.32,0,0,0,993.58,435.61ZM220.52,392.52,570.41,592.8a82,82,0,0,0,81.21,0l349.9-200.28a18.88,18.88,0,0,0-9.38-35.26H229.9a18.88,18.88,0,0,0-9.38,35.26Z"/><path class="cls-107" d="M992.73,434.77,667.4,621a115.67,115.67,0,0,1-114.46,0L227.61,434.77a11.31,11.31,0,0,0-16.94,9.82v401a18.38,18.38,0,0,0,18.38,18.38H991.29a18.38,18.38,0,0,0,18.38-18.38v-401A11.31,11.31,0,0,0,992.73,434.77ZM219.67,391.68,569.56,592a82.08,82.08,0,0,0,81.22,0l349.89-200.28a18.88,18.88,0,0,0-9.38-35.27H229.05a18.88,18.88,0,0,0-9.38,35.27Z"/><path class="cls-108" d="M991.88,433.92,666.55,620.14a115.58,115.58,0,0,1-114.45,0L226.76,433.92a11.32,11.32,0,0,0-16.94,9.82v401a18.38,18.38,0,0,0,18.38,18.38H990.44a18.38,18.38,0,0,0,18.38-18.38v-401A11.32,11.32,0,0,0,991.88,433.92ZM218.82,390.83,568.71,591.11a82.08,82.08,0,0,0,81.22,0L999.82,390.83a18.88,18.88,0,0,0-9.38-35.27H228.2a18.88,18.88,0,0,0-9.38,35.27Z"/><path class="cls-109" d="M991,433.07,665.7,619.29a115.58,115.58,0,0,1-114.45,0L225.91,433.07A11.32,11.32,0,0,0,209,442.89v401a18.38,18.38,0,0,0,18.38,18.38H989.6A18.38,18.38,0,0,0,1008,843.85v-401A11.32,11.32,0,0,0,991,433.07ZM218,390l349.9,200.28a82,82,0,0,0,81.21,0L999,390a18.88,18.88,0,0,0-9.37-35.26H227.35A18.88,18.88,0,0,0,218,390Z"/><path class="cls-110" d="M990.19,432.22,664.85,618.45a115.65,115.65,0,0,1-114.45,0L225.07,432.22a11.32,11.32,0,0,0-16.94,9.83V843a18.37,18.37,0,0,0,18.38,18.38H988.75A18.37,18.37,0,0,0,1007.13,843V442.05A11.32,11.32,0,0,0,990.19,432.22ZM217.13,389.13,567,589.41a82,82,0,0,0,81.21,0l349.9-200.28a18.88,18.88,0,0,0-9.38-35.26H226.51a18.88,18.88,0,0,0-9.38,35.26Z"/><path class="cls-111" d="M989.34,431.38,664,617.6a115.67,115.67,0,0,1-114.46,0L224.22,431.38a11.31,11.31,0,0,0-16.94,9.82v401a18.38,18.38,0,0,0,18.38,18.38H987.9a18.38,18.38,0,0,0,18.38-18.38v-401A11.31,11.31,0,0,0,989.34,431.38ZM216.28,388.29,566.17,588.57a82.08,82.08,0,0,0,81.22,0L997.28,388.29A18.88,18.88,0,0,0,987.9,353H225.66a18.88,18.88,0,0,0-9.38,35.27Z"/><path class="cls-112" d="M988.49,430.53,663.16,616.75a115.58,115.58,0,0,1-114.45,0L223.37,430.53a11.32,11.32,0,0,0-16.94,9.82v401a18.38,18.38,0,0,0,18.38,18.38H987.05a18.38,18.38,0,0,0,18.38-18.38v-401A11.32,11.32,0,0,0,988.49,430.53ZM215.43,387.44,565.32,587.72a82.08,82.08,0,0,0,81.22,0L996.43,387.44a18.88,18.88,0,0,0-9.38-35.26H224.81a18.88,18.88,0,0,0-9.38,35.26Z"/><path class="cls-113" d="M987.65,429.68,662.31,615.9a115.58,115.58,0,0,1-114.45,0L222.52,429.68a11.32,11.32,0,0,0-16.94,9.82v401A18.38,18.38,0,0,0,224,858.84H986.21a18.38,18.38,0,0,0,18.38-18.38v-401A11.32,11.32,0,0,0,987.65,429.68ZM214.58,386.59l349.9,200.28a82,82,0,0,0,81.21,0L995.58,386.59a18.88,18.88,0,0,0-9.37-35.26H224a18.88,18.88,0,0,0-9.38,35.26Z"/><path class="cls-114" d="M986.8,428.83,661.46,615.06a115.65,115.65,0,0,1-114.45,0L221.68,428.83a11.32,11.32,0,0,0-16.94,9.83v401A18.37,18.37,0,0,0,223.12,858H985.36a18.37,18.37,0,0,0,18.38-18.37v-401A11.32,11.32,0,0,0,986.8,428.83ZM213.74,385.74,563.63,586a82,82,0,0,0,81.21,0l349.9-200.28a18.88,18.88,0,0,0-9.38-35.26H223.12a18.88,18.88,0,0,0-9.38,35.26Z"/><path class="cls-115" d="M986,428,660.62,614.21a115.67,115.67,0,0,1-114.46,0L220.83,428a11.31,11.31,0,0,0-16.94,9.82v401a18.38,18.38,0,0,0,18.38,18.38H984.51a18.38,18.38,0,0,0,18.38-18.38v-401A11.31,11.31,0,0,0,986,428ZM212.89,384.9,562.78,585.18a82.08,82.08,0,0,0,81.22,0L993.89,384.9a18.88,18.88,0,0,0-9.38-35.27H222.27a18.88,18.88,0,0,0-9.38,35.27Z"/><path class="cls-116" d="M985.1,427.14,659.77,613.36a115.58,115.58,0,0,1-114.45,0L220,427.14A11.32,11.32,0,0,0,203,437v401a18.38,18.38,0,0,0,18.38,18.38H983.66A18.38,18.38,0,0,0,1002,837.92V437A11.32,11.32,0,0,0,985.1,427.14ZM212,384.05,561.93,584.33a82.08,82.08,0,0,0,81.22,0L993,384.05a18.88,18.88,0,0,0-9.38-35.26H221.42A18.88,18.88,0,0,0,212,384.05Z"/><path class="cls-117" d="M984.26,426.29,658.92,612.51a115.58,115.58,0,0,1-114.45,0L219.13,426.29a11.32,11.32,0,0,0-16.94,9.82v401a18.38,18.38,0,0,0,18.38,18.38H982.82a18.38,18.38,0,0,0,18.38-18.38v-401A11.32,11.32,0,0,0,984.26,426.29ZM211.19,383.2l349.9,200.28a82,82,0,0,0,81.21,0L992.19,383.2a18.88,18.88,0,0,0-9.37-35.26H220.57a18.88,18.88,0,0,0-9.38,35.26Z"/><path class="cls-118" d="M983.41,425.44,658.08,611.67a115.67,115.67,0,0,1-114.46,0L218.29,425.44a11.32,11.32,0,0,0-16.94,9.83v401a18.37,18.37,0,0,0,18.38,18.37H982a18.37,18.37,0,0,0,18.38-18.37v-401A11.32,11.32,0,0,0,983.41,425.44ZM210.35,382.35,560.24,582.63a82,82,0,0,0,81.21,0l349.9-200.28A18.88,18.88,0,0,0,982,347.09H219.73a18.88,18.88,0,0,0-9.38,35.26Z"/><path class="gray" d="M982.56,424.6,657.23,610.82a115.67,115.67,0,0,1-114.46,0L217.44,424.6a11.31,11.31,0,0,0-16.94,9.82v401a18.38,18.38,0,0,0,18.38,18.38H981.12a18.38,18.38,0,0,0,18.38-18.38v-401A11.32,11.32,0,0,0,982.56,424.6ZM209.5,381.51,559.39,581.79a82.08,82.08,0,0,0,81.22,0L990.5,381.51a18.88,18.88,0,0,0-9.38-35.27H218.88a18.88,18.88,0,0,0-9.38,35.27Z"/></g><path class="white" d="M982.56,424.6,657.23,610.82a115.67,115.67,0,0,1-114.46,0L217.44,424.6a11.31,11.31,0,0,0-16.94,9.82v401a18.38,18.38,0,0,0,18.38,18.38H981.12a18.38,18.38,0,0,0,18.38-18.38v-401A11.32,11.32,0,0,0,982.56,424.6ZM209.5,381.51,559.39,581.79a82.08,82.08,0,0,0,81.22,0L990.5,381.51a18.88,18.88,0,0,0-9.38-35.27H218.88a18.88,18.88,0,0,0-9.38,35.27Z"/></g></g></svg>