<svg id="Layer_1" data-name="Layer 1" xmlns="http://www.w3.org/2000/svg" viewBox="0 0 383.34 480"><defs><style>.cls-1,.cls-2,.cls-3,.cls-4{fill:#fff;stroke:#03017d;stroke-miterlimit:10;}.cls-1,.cls-2,.cls-3{stroke-width:11px;}.cls-2{font-size:276.99px;letter-spacing:-0.03em;}.cls-2,.cls-3{font-family:OctinSportsRg-Regular, Octin Sports;}.cls-3{font-size:288.18px;letter-spacing:-0.06em;}.cls-4{stroke-width:7px;opacity:0.83;}</style></defs><ellipse class="cls-1" cx="191.48" cy="213.67" rx="182.29" ry="178.54"/><text class="cls-2" transform="translate(56.69 270.57) scale(1.22 1)">S</text><text class="cls-3" transform="translate(158.16 362.82) scale(1.1 1)">J</text><path class="cls-4" d="M64,326.15l14.44,4.75a57.73,57.73,0,0,0,2.44,18.15"/><path class="cls-4" d="M79.28,314.7l14.44,4.75a58,58,0,0,0,2.44,18.15"/><path class="cls-4" d="M100.72,299.79l12.93,8.13a58,58,0,0,0-1.86,18.23"/><path class="cls-4" d="M121.28,291.24,134.42,299a57.85,57.85,0,0,0-1.33,18.27"/><path class="cls-4" d="M141.69,283.6,154.42,292a57.87,57.87,0,0,0-2.28,18.18"/><path class="cls-4" d="M216.85,276.9l8.33,13a57,57,0,0,0-9.26,15.69"/><path class="cls-4" d="M237.27,279.94l5.25,14.55a56.11,56.11,0,0,0-12.47,13.16"/><path class="cls-4" d="M256.25,286.18,260.62,301A56.08,56.08,0,0,0,247.4,313.4"/><path class="cls-4" d="M318.12,312.81l3.56,15.09a55.3,55.3,0,0,0-13.89,11.58"/><path class="cls-4" d="M326.47,103.34l-14.78-3.51a57.73,57.73,0,0,0-3.9-17.89"/><path class="cls-4" d="M309.19,114.8l-14.44-4.75a57.75,57.75,0,0,0-2.44-18.16"/><path class="cls-4" d="M290.64,126.27l-13.78-6.48a57.81,57.81,0,0,0-.29-18.33"/><path class="cls-4" d="M272.28,133.24l-13.78-6.49a58,58,0,0,0-.3-18.32"/><path class="cls-4" d="M247.4,138.63l-12.85-8.24a58,58,0,0,0,2-18.21"/><path class="cls-4" d="M144.15,139.61l-6.93-13.8a56.39,56.39,0,0,0,10.83-14.61"/><path class="cls-4" d="M121.84,136.05l-5.08-14.62a55.93,55.93,0,0,0,12.64-13"/><path class="cls-4" d="M68.73,94.61l2.49-12.94a40.5,40.5,0,0,0,13.84-3.5"/><path class="cls-4" d="M167.88,142.27,161,128.47a56.57,56.57,0,0,0,10.83-14.6"/></svg>